<?xml version="1.0" encoding="utf-8" standalone="no"?>
<!DOCTYPE svg PUBLIC "-//W3C//DTD SVG 1.1//EN"
  "http://www.w3.org/Graphics/SVG/1.1/DTD/svg11.dtd">
<!-- Created with matplotlib (https://matplotlib.org/) -->
<svg height="216pt" version="1.1" viewBox="0 0 576 216" width="576pt" xmlns="http://www.w3.org/2000/svg" xmlns:xlink="http://www.w3.org/1999/xlink">
 <metadata>
  <rdf:RDF xmlns:cc="http://creativecommons.org/ns#" xmlns:dc="http://purl.org/dc/elements/1.1/" xmlns:rdf="http://www.w3.org/1999/02/22-rdf-syntax-ns#">
   <cc:Work>
    <dc:type rdf:resource="http://purl.org/dc/dcmitype/StillImage"/>
    <dc:date>2022-05-26T03:45:50.456890</dc:date>
    <dc:format>image/svg+xml</dc:format>
    <dc:creator>
     <cc:Agent>
      <dc:title>Matplotlib v3.3.4, https://matplotlib.org/</dc:title>
     </cc:Agent>
    </dc:creator>
   </cc:Work>
  </rdf:RDF>
 </metadata>
 <defs>
  <style type="text/css">*{stroke-linecap:butt;stroke-linejoin:round;}</style>
 </defs>
 <g id="figure_1">
  <g id="patch_1">
   <path d="M 0 216 
L 576 216 
L 576 0 
L 0 0 
z
" style="fill:none;"/>
  </g>
  <g id="axes_1">
   <g id="patch_2">
    <path d="M 62.55 166.7 
L 272.19375 166.7 
L 272.19375 10.8 
L 62.55 10.8 
z
" style="fill:#ffffff;"/>
   </g>
   <g id="matplotlib.axis_1">
    <g id="xtick_1">
     <g id="text_1">
      <!-- 0 -->
      <g style="fill:#262626;" transform="translate(59.050625 184.558281)scale(0.11 -0.11)">
       <defs>
        <path d="M 31.78125 66.40625 
Q 24.171875 66.40625 20.328125 58.90625 
Q 16.5 51.421875 16.5 36.375 
Q 16.5 21.390625 20.328125 13.890625 
Q 24.171875 6.390625 31.78125 6.390625 
Q 39.453125 6.390625 43.28125 13.890625 
Q 47.125 21.390625 47.125 36.375 
Q 47.125 51.421875 43.28125 58.90625 
Q 39.453125 66.40625 31.78125 66.40625 
z
M 31.78125 74.21875 
Q 44.046875 74.21875 50.515625 64.515625 
Q 56.984375 54.828125 56.984375 36.375 
Q 56.984375 17.96875 50.515625 8.265625 
Q 44.046875 -1.421875 31.78125 -1.421875 
Q 19.53125 -1.421875 13.0625 8.265625 
Q 6.59375 17.96875 6.59375 36.375 
Q 6.59375 54.828125 13.0625 64.515625 
Q 19.53125 74.21875 31.78125 74.21875 
z
" id="DejaVuSans-48"/>
       </defs>
       <use xlink:href="#DejaVuSans-48"/>
      </g>
     </g>
    </g>
    <g id="xtick_2">
     <g id="text_2">
      <!-- 100 -->
      <g style="fill:#262626;" transform="translate(93.980625 184.558281)scale(0.11 -0.11)">
       <defs>
        <path d="M 12.40625 8.296875 
L 28.515625 8.296875 
L 28.515625 63.921875 
L 10.984375 60.40625 
L 10.984375 69.390625 
L 28.421875 72.90625 
L 38.28125 72.90625 
L 38.28125 8.296875 
L 54.390625 8.296875 
L 54.390625 0 
L 12.40625 0 
z
" id="DejaVuSans-49"/>
       </defs>
       <use xlink:href="#DejaVuSans-49"/>
       <use x="63.623047" xlink:href="#DejaVuSans-48"/>
       <use x="127.246094" xlink:href="#DejaVuSans-48"/>
      </g>
     </g>
    </g>
    <g id="xtick_3">
     <g id="text_3">
      <!-- 200 -->
      <g style="fill:#262626;" transform="translate(135.909375 184.558281)scale(0.11 -0.11)">
       <defs>
        <path d="M 19.1875 8.296875 
L 53.609375 8.296875 
L 53.609375 0 
L 7.328125 0 
L 7.328125 8.296875 
Q 12.9375 14.109375 22.625 23.890625 
Q 32.328125 33.6875 34.8125 36.53125 
Q 39.546875 41.84375 41.421875 45.53125 
Q 43.3125 49.21875 43.3125 52.78125 
Q 43.3125 58.59375 39.234375 62.25 
Q 35.15625 65.921875 28.609375 65.921875 
Q 23.96875 65.921875 18.8125 64.3125 
Q 13.671875 62.703125 7.8125 59.421875 
L 7.8125 69.390625 
Q 13.765625 71.78125 18.9375 73 
Q 24.125 74.21875 28.421875 74.21875 
Q 39.75 74.21875 46.484375 68.546875 
Q 53.21875 62.890625 53.21875 53.421875 
Q 53.21875 48.921875 51.53125 44.890625 
Q 49.859375 40.875 45.40625 35.40625 
Q 44.1875 33.984375 37.640625 27.21875 
Q 31.109375 20.453125 19.1875 8.296875 
z
" id="DejaVuSans-50"/>
       </defs>
       <use xlink:href="#DejaVuSans-50"/>
       <use x="63.623047" xlink:href="#DejaVuSans-48"/>
       <use x="127.246094" xlink:href="#DejaVuSans-48"/>
      </g>
     </g>
    </g>
    <g id="xtick_4">
     <g id="text_4">
      <!-- 300 -->
      <g style="fill:#262626;" transform="translate(177.838125 184.558281)scale(0.11 -0.11)">
       <defs>
        <path d="M 40.578125 39.3125 
Q 47.65625 37.796875 51.625 33 
Q 55.609375 28.21875 55.609375 21.1875 
Q 55.609375 10.40625 48.1875 4.484375 
Q 40.765625 -1.421875 27.09375 -1.421875 
Q 22.515625 -1.421875 17.65625 -0.515625 
Q 12.796875 0.390625 7.625 2.203125 
L 7.625 11.71875 
Q 11.71875 9.328125 16.59375 8.109375 
Q 21.484375 6.890625 26.8125 6.890625 
Q 36.078125 6.890625 40.9375 10.546875 
Q 45.796875 14.203125 45.796875 21.1875 
Q 45.796875 27.640625 41.28125 31.265625 
Q 36.765625 34.90625 28.71875 34.90625 
L 20.21875 34.90625 
L 20.21875 43.015625 
L 29.109375 43.015625 
Q 36.375 43.015625 40.234375 45.921875 
Q 44.09375 48.828125 44.09375 54.296875 
Q 44.09375 59.90625 40.109375 62.90625 
Q 36.140625 65.921875 28.71875 65.921875 
Q 24.65625 65.921875 20.015625 65.03125 
Q 15.375 64.15625 9.8125 62.3125 
L 9.8125 71.09375 
Q 15.4375 72.65625 20.34375 73.4375 
Q 25.25 74.21875 29.59375 74.21875 
Q 40.828125 74.21875 47.359375 69.109375 
Q 53.90625 64.015625 53.90625 55.328125 
Q 53.90625 49.265625 50.4375 45.09375 
Q 46.96875 40.921875 40.578125 39.3125 
z
" id="DejaVuSans-51"/>
       </defs>
       <use xlink:href="#DejaVuSans-51"/>
       <use x="63.623047" xlink:href="#DejaVuSans-48"/>
       <use x="127.246094" xlink:href="#DejaVuSans-48"/>
      </g>
     </g>
    </g>
    <g id="xtick_5">
     <g id="text_5">
      <!-- 400 -->
      <g style="fill:#262626;" transform="translate(219.766875 184.558281)scale(0.11 -0.11)">
       <defs>
        <path d="M 37.796875 64.3125 
L 12.890625 25.390625 
L 37.796875 25.390625 
z
M 35.203125 72.90625 
L 47.609375 72.90625 
L 47.609375 25.390625 
L 58.015625 25.390625 
L 58.015625 17.1875 
L 47.609375 17.1875 
L 47.609375 0 
L 37.796875 0 
L 37.796875 17.1875 
L 4.890625 17.1875 
L 4.890625 26.703125 
z
" id="DejaVuSans-52"/>
       </defs>
       <use xlink:href="#DejaVuSans-52"/>
       <use x="63.623047" xlink:href="#DejaVuSans-48"/>
       <use x="127.246094" xlink:href="#DejaVuSans-48"/>
      </g>
     </g>
    </g>
    <g id="xtick_6">
     <g id="text_6">
      <!-- 500 -->
      <g style="fill:#262626;" transform="translate(261.695625 184.558281)scale(0.11 -0.11)">
       <defs>
        <path d="M 10.796875 72.90625 
L 49.515625 72.90625 
L 49.515625 64.59375 
L 19.828125 64.59375 
L 19.828125 46.734375 
Q 21.96875 47.46875 24.109375 47.828125 
Q 26.265625 48.1875 28.421875 48.1875 
Q 40.625 48.1875 47.75 41.5 
Q 54.890625 34.8125 54.890625 23.390625 
Q 54.890625 11.625 47.5625 5.09375 
Q 40.234375 -1.421875 26.90625 -1.421875 
Q 22.3125 -1.421875 17.546875 -0.640625 
Q 12.796875 0.140625 7.71875 1.703125 
L 7.71875 11.625 
Q 12.109375 9.234375 16.796875 8.0625 
Q 21.484375 6.890625 26.703125 6.890625 
Q 35.15625 6.890625 40.078125 11.328125 
Q 45.015625 15.765625 45.015625 23.390625 
Q 45.015625 31 40.078125 35.4375 
Q 35.15625 39.890625 26.703125 39.890625 
Q 22.75 39.890625 18.8125 39.015625 
Q 14.890625 38.140625 10.796875 36.28125 
z
" id="DejaVuSans-53"/>
       </defs>
       <use xlink:href="#DejaVuSans-53"/>
       <use x="63.623047" xlink:href="#DejaVuSans-48"/>
       <use x="127.246094" xlink:href="#DejaVuSans-48"/>
      </g>
     </g>
    </g>
    <g id="text_7">
     <!-- Time (ms) -->
     <g style="fill:#262626;" transform="translate(127.053125 203.003438)scale(0.16 -0.16)">
      <defs>
       <path d="M -0.296875 72.90625 
L 61.375 72.90625 
L 61.375 64.59375 
L 35.5 64.59375 
L 35.5 0 
L 25.59375 0 
L 25.59375 64.59375 
L -0.296875 64.59375 
z
" id="DejaVuSans-84"/>
       <path d="M 9.421875 54.6875 
L 18.40625 54.6875 
L 18.40625 0 
L 9.421875 0 
z
M 9.421875 75.984375 
L 18.40625 75.984375 
L 18.40625 64.59375 
L 9.421875 64.59375 
z
" id="DejaVuSans-105"/>
       <path d="M 52 44.1875 
Q 55.375 50.25 60.0625 53.125 
Q 64.75 56 71.09375 56 
Q 79.640625 56 84.28125 50.015625 
Q 88.921875 44.046875 88.921875 33.015625 
L 88.921875 0 
L 79.890625 0 
L 79.890625 32.71875 
Q 79.890625 40.578125 77.09375 44.375 
Q 74.3125 48.1875 68.609375 48.1875 
Q 61.625 48.1875 57.5625 43.546875 
Q 53.515625 38.921875 53.515625 30.90625 
L 53.515625 0 
L 44.484375 0 
L 44.484375 32.71875 
Q 44.484375 40.625 41.703125 44.40625 
Q 38.921875 48.1875 33.109375 48.1875 
Q 26.21875 48.1875 22.15625 43.53125 
Q 18.109375 38.875 18.109375 30.90625 
L 18.109375 0 
L 9.078125 0 
L 9.078125 54.6875 
L 18.109375 54.6875 
L 18.109375 46.1875 
Q 21.1875 51.21875 25.484375 53.609375 
Q 29.78125 56 35.6875 56 
Q 41.65625 56 45.828125 52.96875 
Q 50 49.953125 52 44.1875 
z
" id="DejaVuSans-109"/>
       <path d="M 56.203125 29.59375 
L 56.203125 25.203125 
L 14.890625 25.203125 
Q 15.484375 15.921875 20.484375 11.0625 
Q 25.484375 6.203125 34.421875 6.203125 
Q 39.59375 6.203125 44.453125 7.46875 
Q 49.3125 8.734375 54.109375 11.28125 
L 54.109375 2.78125 
Q 49.265625 0.734375 44.1875 -0.34375 
Q 39.109375 -1.421875 33.890625 -1.421875 
Q 20.796875 -1.421875 13.15625 6.1875 
Q 5.515625 13.8125 5.515625 26.8125 
Q 5.515625 40.234375 12.765625 48.109375 
Q 20.015625 56 32.328125 56 
Q 43.359375 56 49.78125 48.890625 
Q 56.203125 41.796875 56.203125 29.59375 
z
M 47.21875 32.234375 
Q 47.125 39.59375 43.09375 43.984375 
Q 39.0625 48.390625 32.421875 48.390625 
Q 24.90625 48.390625 20.390625 44.140625 
Q 15.875 39.890625 15.1875 32.171875 
z
" id="DejaVuSans-101"/>
       <path id="DejaVuSans-32"/>
       <path d="M 31 75.875 
Q 24.46875 64.65625 21.28125 53.65625 
Q 18.109375 42.671875 18.109375 31.390625 
Q 18.109375 20.125 21.3125 9.0625 
Q 24.515625 -2 31 -13.1875 
L 23.1875 -13.1875 
Q 15.875 -1.703125 12.234375 9.375 
Q 8.59375 20.453125 8.59375 31.390625 
Q 8.59375 42.28125 12.203125 53.3125 
Q 15.828125 64.359375 23.1875 75.875 
z
" id="DejaVuSans-40"/>
       <path d="M 44.28125 53.078125 
L 44.28125 44.578125 
Q 40.484375 46.53125 36.375 47.5 
Q 32.28125 48.484375 27.875 48.484375 
Q 21.1875 48.484375 17.84375 46.4375 
Q 14.5 44.390625 14.5 40.28125 
Q 14.5 37.15625 16.890625 35.375 
Q 19.28125 33.59375 26.515625 31.984375 
L 29.59375 31.296875 
Q 39.15625 29.25 43.1875 25.515625 
Q 47.21875 21.78125 47.21875 15.09375 
Q 47.21875 7.46875 41.1875 3.015625 
Q 35.15625 -1.421875 24.609375 -1.421875 
Q 20.21875 -1.421875 15.453125 -0.5625 
Q 10.6875 0.296875 5.421875 2 
L 5.421875 11.28125 
Q 10.40625 8.6875 15.234375 7.390625 
Q 20.0625 6.109375 24.8125 6.109375 
Q 31.15625 6.109375 34.5625 8.28125 
Q 37.984375 10.453125 37.984375 14.40625 
Q 37.984375 18.0625 35.515625 20.015625 
Q 33.0625 21.96875 24.703125 23.78125 
L 21.578125 24.515625 
Q 13.234375 26.265625 9.515625 29.90625 
Q 5.8125 33.546875 5.8125 39.890625 
Q 5.8125 47.609375 11.28125 51.796875 
Q 16.75 56 26.8125 56 
Q 31.78125 56 36.171875 55.265625 
Q 40.578125 54.546875 44.28125 53.078125 
z
" id="DejaVuSans-115"/>
       <path d="M 8.015625 75.875 
L 15.828125 75.875 
Q 23.140625 64.359375 26.78125 53.3125 
Q 30.421875 42.28125 30.421875 31.390625 
Q 30.421875 20.453125 26.78125 9.375 
Q 23.140625 -1.703125 15.828125 -13.1875 
L 8.015625 -13.1875 
Q 14.5 -2 17.703125 9.0625 
Q 20.90625 20.125 20.90625 31.390625 
Q 20.90625 42.671875 17.703125 53.65625 
Q 14.5 64.65625 8.015625 75.875 
z
" id="DejaVuSans-41"/>
      </defs>
      <use xlink:href="#DejaVuSans-84"/>
      <use x="57.958984" xlink:href="#DejaVuSans-105"/>
      <use x="85.742188" xlink:href="#DejaVuSans-109"/>
      <use x="183.154297" xlink:href="#DejaVuSans-101"/>
      <use x="244.677734" xlink:href="#DejaVuSans-32"/>
      <use x="276.464844" xlink:href="#DejaVuSans-40"/>
      <use x="315.478516" xlink:href="#DejaVuSans-109"/>
      <use x="412.890625" xlink:href="#DejaVuSans-115"/>
      <use x="464.990234" xlink:href="#DejaVuSans-41"/>
     </g>
    </g>
   </g>
   <g id="matplotlib.axis_2">
    <g id="ytick_1">
     <g id="text_8">
      <!-- −20 -->
      <g style="fill:#262626;" transform="translate(29.834844 145.756354)scale(0.11 -0.11)">
       <defs>
        <path d="M 10.59375 35.5 
L 73.1875 35.5 
L 73.1875 27.203125 
L 10.59375 27.203125 
z
" id="DejaVuSans-8722"/>
       </defs>
       <use xlink:href="#DejaVuSans-8722"/>
       <use x="83.789062" xlink:href="#DejaVuSans-50"/>
       <use x="147.412109" xlink:href="#DejaVuSans-48"/>
      </g>
     </g>
    </g>
    <g id="ytick_2">
     <g id="text_9">
      <!-- −10 -->
      <g style="fill:#262626;" transform="translate(29.834844 106.874459)scale(0.11 -0.11)">
       <use xlink:href="#DejaVuSans-8722"/>
       <use x="83.789062" xlink:href="#DejaVuSans-49"/>
       <use x="147.412109" xlink:href="#DejaVuSans-48"/>
      </g>
     </g>
    </g>
    <g id="ytick_3">
     <g id="text_10">
      <!-- 0 -->
      <g style="fill:#262626;" transform="translate(46.05125 67.992564)scale(0.11 -0.11)">
       <use xlink:href="#DejaVuSans-48"/>
      </g>
     </g>
    </g>
    <g id="ytick_4">
     <g id="text_11">
      <!-- 10 -->
      <g style="fill:#262626;" transform="translate(39.0525 29.110669)scale(0.11 -0.11)">
       <use xlink:href="#DejaVuSans-49"/>
       <use x="63.623047" xlink:href="#DejaVuSans-48"/>
      </g>
     </g>
    </g>
    <g id="text_12">
     <!-- Dipole (nAm) -->
     <g style="fill:#262626;" transform="translate(22.507344 141.37125)rotate(-90)scale(0.16 -0.16)">
      <defs>
       <path d="M 19.671875 64.796875 
L 19.671875 8.109375 
L 31.59375 8.109375 
Q 46.6875 8.109375 53.6875 14.9375 
Q 60.6875 21.78125 60.6875 36.53125 
Q 60.6875 51.171875 53.6875 57.984375 
Q 46.6875 64.796875 31.59375 64.796875 
z
M 9.8125 72.90625 
L 30.078125 72.90625 
Q 51.265625 72.90625 61.171875 64.09375 
Q 71.09375 55.28125 71.09375 36.53125 
Q 71.09375 17.671875 61.125 8.828125 
Q 51.171875 0 30.078125 0 
L 9.8125 0 
z
" id="DejaVuSans-68"/>
       <path d="M 18.109375 8.203125 
L 18.109375 -20.796875 
L 9.078125 -20.796875 
L 9.078125 54.6875 
L 18.109375 54.6875 
L 18.109375 46.390625 
Q 20.953125 51.265625 25.265625 53.625 
Q 29.59375 56 35.59375 56 
Q 45.5625 56 51.78125 48.09375 
Q 58.015625 40.1875 58.015625 27.296875 
Q 58.015625 14.40625 51.78125 6.484375 
Q 45.5625 -1.421875 35.59375 -1.421875 
Q 29.59375 -1.421875 25.265625 0.953125 
Q 20.953125 3.328125 18.109375 8.203125 
z
M 48.6875 27.296875 
Q 48.6875 37.203125 44.609375 42.84375 
Q 40.53125 48.484375 33.40625 48.484375 
Q 26.265625 48.484375 22.1875 42.84375 
Q 18.109375 37.203125 18.109375 27.296875 
Q 18.109375 17.390625 22.1875 11.75 
Q 26.265625 6.109375 33.40625 6.109375 
Q 40.53125 6.109375 44.609375 11.75 
Q 48.6875 17.390625 48.6875 27.296875 
z
" id="DejaVuSans-112"/>
       <path d="M 30.609375 48.390625 
Q 23.390625 48.390625 19.1875 42.75 
Q 14.984375 37.109375 14.984375 27.296875 
Q 14.984375 17.484375 19.15625 11.84375 
Q 23.34375 6.203125 30.609375 6.203125 
Q 37.796875 6.203125 41.984375 11.859375 
Q 46.1875 17.53125 46.1875 27.296875 
Q 46.1875 37.015625 41.984375 42.703125 
Q 37.796875 48.390625 30.609375 48.390625 
z
M 30.609375 56 
Q 42.328125 56 49.015625 48.375 
Q 55.71875 40.765625 55.71875 27.296875 
Q 55.71875 13.875 49.015625 6.21875 
Q 42.328125 -1.421875 30.609375 -1.421875 
Q 18.84375 -1.421875 12.171875 6.21875 
Q 5.515625 13.875 5.515625 27.296875 
Q 5.515625 40.765625 12.171875 48.375 
Q 18.84375 56 30.609375 56 
z
" id="DejaVuSans-111"/>
       <path d="M 9.421875 75.984375 
L 18.40625 75.984375 
L 18.40625 0 
L 9.421875 0 
z
" id="DejaVuSans-108"/>
       <path d="M 54.890625 33.015625 
L 54.890625 0 
L 45.90625 0 
L 45.90625 32.71875 
Q 45.90625 40.484375 42.875 44.328125 
Q 39.84375 48.1875 33.796875 48.1875 
Q 26.515625 48.1875 22.3125 43.546875 
Q 18.109375 38.921875 18.109375 30.90625 
L 18.109375 0 
L 9.078125 0 
L 9.078125 54.6875 
L 18.109375 54.6875 
L 18.109375 46.1875 
Q 21.34375 51.125 25.703125 53.5625 
Q 30.078125 56 35.796875 56 
Q 45.21875 56 50.046875 50.171875 
Q 54.890625 44.34375 54.890625 33.015625 
z
" id="DejaVuSans-110"/>
       <path d="M 34.1875 63.1875 
L 20.796875 26.90625 
L 47.609375 26.90625 
z
M 28.609375 72.90625 
L 39.796875 72.90625 
L 67.578125 0 
L 57.328125 0 
L 50.6875 18.703125 
L 17.828125 18.703125 
L 11.1875 0 
L 0.78125 0 
z
" id="DejaVuSans-65"/>
      </defs>
      <use xlink:href="#DejaVuSans-68"/>
      <use x="77.001953" xlink:href="#DejaVuSans-105"/>
      <use x="104.785156" xlink:href="#DejaVuSans-112"/>
      <use x="168.261719" xlink:href="#DejaVuSans-111"/>
      <use x="229.443359" xlink:href="#DejaVuSans-108"/>
      <use x="257.226562" xlink:href="#DejaVuSans-101"/>
      <use x="318.75" xlink:href="#DejaVuSans-32"/>
      <use x="350.537109" xlink:href="#DejaVuSans-40"/>
      <use x="389.550781" xlink:href="#DejaVuSans-110"/>
      <use x="452.929688" xlink:href="#DejaVuSans-65"/>
      <use x="521.337891" xlink:href="#DejaVuSans-109"/>
      <use x="618.75" xlink:href="#DejaVuSans-41"/>
     </g>
    </g>
   </g>
   <g id="line2d_1">
    <path clip-path="url(#pd0b81e658c)" d="M 62.55 57.388981 
L 63.178931 57.58373 
L 63.388575 57.639804 
L 63.598219 57.522005 
L 63.807863 56.978409 
L 64.646438 52.170225 
L 64.856081 52.685884 
L 65.275369 55.742673 
L 65.694656 59.080552 
L 65.9043 60.106646 
L 66.113944 60.359158 
L 66.323588 59.929441 
L 66.952519 58.05254 
L 67.371806 57.68386 
L 68.000737 57.376255 
L 68.629669 57.344016 
L 69.048956 56.836813 
L 69.2586 56.572486 
L 69.468244 56.572538 
L 69.887531 57.603932 
L 70.097175 58.171395 
L 70.306819 58.41455 
L 70.516463 58.282016 
L 70.93575 57.328597 
L 71.355038 56.22811 
L 71.564681 55.926683 
L 71.774325 55.921032 
L 72.193613 56.477634 
L 72.6129 57.048006 
L 72.822544 57.09264 
L 73.032188 56.85712 
L 73.451475 55.617805 
L 74.29005 52.942762 
L 74.709338 52.072858 
L 74.918981 52.175788 
L 75.128625 52.967221 
L 75.757556 56.733955 
L 75.9672 56.578881 
L 76.596131 53.931542 
L 76.805775 53.65537 
L 77.015419 53.699064 
L 77.64435 54.413324 
L 77.853994 54.427128 
L 78.273281 53.73309 
L 78.692569 52.93545 
L 78.902213 52.850697 
L 79.111856 53.141833 
L 79.531144 55.121607 
L 79.950431 57.032293 
L 80.160075 56.984371 
L 80.99865 54.405823 
L 81.208294 54.348982 
L 81.417937 54.72811 
L 82.046869 56.959518 
L 82.256512 57.18234 
L 82.466156 57.094827 
L 82.885444 56.728548 
L 83.095088 56.741496 
L 83.304731 56.989718 
L 84.143306 59.038776 
L 84.35295 58.431054 
L 84.772238 55.719504 
L 85.401169 51.641925 
L 85.610813 51.219565 
L 85.820456 51.460151 
L 87.078319 55.405663 
L 87.497606 55.64804 
L 88.336181 55.672866 
L 88.545825 55.822752 
L 88.755469 56.13189 
L 89.174756 57.480042 
L 89.803687 60.24036 
L 90.013331 60.724819 
L 90.222975 60.915926 
L 90.432619 60.830524 
L 90.851906 60.45785 
L 91.06155 60.935016 
L 91.480838 64.347762 
L 91.900125 67.465852 
L 92.109769 67.704653 
L 92.529056 67.317171 
L 92.7387 67.615571 
L 93.157987 69.344263 
L 93.996562 73.737862 
L 94.206206 74.353574 
L 94.41585 74.612191 
L 94.625494 74.455314 
L 95.464069 72.396656 
L 95.673712 72.639444 
L 96.093 74.053078 
L 96.512287 75.811294 
L 96.721931 76.317524 
L 96.931575 76.374364 
L 97.350863 75.742539 
L 97.77015 75.212406 
L 98.189437 75.09706 
L 98.399081 75.192052 
L 98.608725 75.421649 
L 99.028012 76.363893 
L 99.4473 77.261821 
L 99.656944 77.284867 
L 99.866587 77.159644 
L 100.076231 77.237444 
L 100.285875 77.862151 
L 101.543737 84.539986 
L 101.753381 84.790955 
L 101.963025 84.838183 
L 103.220888 84.546498 
L 103.430531 84.796571 
L 103.640175 85.454119 
L 104.059462 88.269655 
L 104.47875 91.414531 
L 104.688394 92.407941 
L 104.898037 92.778067 
L 105.107681 92.371869 
L 105.526969 89.526535 
L 105.946256 86.572375 
L 106.365544 84.995143 
L 106.994475 83.513166 
L 107.413762 83.18268 
L 107.623406 83.114126 
L 107.83305 82.887964 
L 108.252337 81.512667 
L 108.881269 77.899776 
L 109.929487 70.635134 
L 110.139131 70.175377 
L 110.768062 70.079824 
L 110.977706 69.535063 
L 111.396994 67.59959 
L 112.025925 63.511264 
L 113.283787 54.581278 
L 113.493431 53.858579 
L 113.703075 53.604174 
L 114.332006 53.57414 
L 114.751294 52.852852 
L 115.589869 50.624663 
L 117.686306 44.798773 
L 118.105594 44.62878 
L 118.524881 44.514522 
L 119.153812 44.227613 
L 119.5731 44.043322 
L 119.782744 43.666878 
L 120.202031 42.479379 
L 120.411675 42.253917 
L 120.621319 42.635932 
L 121.040606 44.774541 
L 121.669537 48.132359 
L 121.879181 48.2835 
L 122.298469 46.848191 
L 122.508112 46.155757 
L 122.717756 46.03463 
L 123.556331 47.361622 
L 123.765975 47.229084 
L 124.185262 46.342224 
L 124.60455 45.38702 
L 124.814194 45.237461 
L 125.233481 45.167732 
L 125.443125 44.858541 
L 126.2817 42.901995 
L 126.491344 42.84724 
L 126.700987 42.989654 
L 127.539562 44.166976 
L 127.749206 44.275034 
L 127.95885 44.558019 
L 128.168494 45.262339 
L 128.797425 48.514696 
L 129.007069 48.618558 
L 129.216712 47.969849 
L 129.636 44.933418 
L 130.055287 41.462605 
L 130.264931 40.763637 
L 130.474575 41.103853 
L 131.103506 43.370993 
L 131.31315 43.436038 
L 131.732438 43.301798 
L 132.361369 43.408922 
L 132.571012 43.209525 
L 132.9903 42.22174 
L 133.828875 39.219239 
L 134.248162 38.707892 
L 134.66745 38.360297 
L 134.877094 38.431338 
L 135.086737 38.987092 
L 135.715669 42.72897 
L 135.925312 43.054413 
L 136.134956 42.573841 
L 136.763887 40.170259 
L 136.973531 39.994876 
L 137.183175 40.365012 
L 137.602463 42.773493 
L 138.441037 48.660481 
L 138.860325 50.091939 
L 139.279612 51.035734 
L 140.327831 55.086892 
L 140.747119 56.84062 
L 141.166406 59.744195 
L 141.585694 64.079446 
L 142.214625 73.213378 
L 142.843556 82.242889 
L 143.262844 84.852942 
L 143.891775 86.272181 
L 144.101419 87.534226 
L 144.520706 93.279603 
L 145.149637 103.478712 
L 145.988213 112.48686 
L 146.826787 121.691019 
L 147.665362 131.474341 
L 148.503937 136.648884 
L 148.923225 143.594667 
L 149.552156 158.093652 
L 149.7618 159.613636 
L 149.971444 157.405807 
L 151.019662 135.247229 
L 151.43895 132.671013 
L 151.858238 131.470723 
L 152.277525 128.62294 
L 152.696812 123.626463 
L 153.535387 112.178879 
L 154.373962 102.336488 
L 155.002894 91.702799 
L 155.631825 81.846427 
L 156.260756 75.933863 
L 156.889687 69.946671 
L 158.14755 53.851941 
L 158.566837 51.550348 
L 159.405412 48.31789 
L 160.663275 42.19103 
L 161.082562 41.326053 
L 161.50185 40.784645 
L 161.921137 39.543299 
L 162.340425 38.454899 
L 162.550069 38.541266 
L 162.759712 39.136876 
L 163.179 41.772699 
L 163.598287 45.020049 
L 163.807931 45.935208 
L 164.017575 46.134137 
L 164.227219 45.860886 
L 164.85615 44.625696 
L 165.065794 44.553243 
L 165.275437 44.800773 
L 165.485081 45.39135 
L 165.904369 47.559881 
L 166.5333 51.412622 
L 166.742944 51.921124 
L 166.952587 51.970244 
L 167.162231 51.679063 
L 167.581519 50.713997 
L 167.791162 50.581894 
L 168.000806 51.072616 
L 168.629737 53.930804 
L 168.839381 53.823988 
L 169.258669 52.078964 
L 169.677956 50.259031 
L 169.8876 50.193371 
L 170.097244 51.173043 
L 170.726175 55.752305 
L 170.935819 55.218087 
L 171.984037 47.664572 
L 172.193681 47.827985 
L 173.032256 51.21774 
L 173.2419 50.973046 
L 173.661187 49.227285 
L 174.080475 47.278155 
L 174.290119 47.013736 
L 174.91905 47.704703 
L 175.128694 47.108135 
L 175.757625 44.279564 
L 176.176912 43.330248 
L 176.5962 42.680323 
L 176.805844 42.54562 
L 177.015487 42.696184 
L 177.644419 44.114956 
L 177.854062 44.130167 
L 178.27335 43.636667 
L 178.482994 43.649415 
L 178.902281 44.491036 
L 180.369787 48.331773 
L 181.208362 51.987097 
L 181.418006 52.185094 
L 182.256581 51.90122 
L 182.466225 52.180069 
L 182.885512 53.436795 
L 183.933731 57.502022 
L 184.772306 63.236867 
L 184.98195 63.463299 
L 185.401237 63.180965 
L 185.610881 63.252949 
L 185.820525 63.579882 
L 186.239812 64.987761 
L 187.916962 72.589779 
L 188.33625 74.685068 
L 188.965181 78.051204 
L 189.174825 78.485533 
L 189.384469 78.578235 
L 189.803756 78.109789 
L 190.0134 77.871276 
L 190.223044 77.911347 
L 190.432687 78.411373 
L 190.851975 80.658415 
L 191.480906 85.076674 
L 191.69055 85.646803 
L 191.900194 85.402421 
L 192.319481 84.162701 
L 192.529125 84.036082 
L 193.158056 84.79534 
L 193.3677 84.715965 
L 193.786987 83.975093 
L 194.206275 83.072414 
L 194.415919 83.008876 
L 194.625563 83.410105 
L 195.04485 84.658541 
L 195.254494 84.864235 
L 195.464137 84.647319 
L 197.350931 80.626511 
L 197.560575 80.50706 
L 197.770219 80.756937 
L 197.979862 81.481008 
L 198.608794 84.487343 
L 198.818437 84.426397 
L 199.028081 83.682787 
L 200.285944 76.599343 
L 200.495587 76.181326 
L 200.705231 76.20844 
L 201.334162 77.86761 
L 201.543806 77.836108 
L 202.382381 75.692957 
L 202.801669 75.694664 
L 203.011312 75.745656 
L 203.220956 75.640513 
L 203.4306 75.220626 
L 203.849887 73.109855 
L 204.269175 70.73885 
L 204.688462 69.694883 
L 205.10775 69.488546 
L 205.317394 69.400602 
L 205.527037 69.132106 
L 205.946325 67.647086 
L 206.7849 63.254757 
L 206.994544 62.867925 
L 207.204187 63.128399 
L 207.623475 64.180414 
L 207.833119 64.09468 
L 208.252406 62.534216 
L 208.671694 60.991203 
L 209.090981 60.368318 
L 209.300625 60.378631 
L 209.719912 60.770766 
L 210.1392 61.177119 
L 210.348844 61.212018 
L 210.558487 61.045484 
L 210.977775 60.397941 
L 211.187419 60.327946 
L 211.397062 60.640223 
L 211.81635 61.623433 
L 212.025994 61.783215 
L 212.235637 61.5742 
L 212.654925 60.306554 
L 213.703144 56.066972 
L 214.332075 54.532452 
L 214.541719 54.376947 
L 214.751362 54.62266 
L 215.17065 55.834652 
L 215.380294 56.080803 
L 215.589937 55.699649 
L 216.428512 52.800374 
L 216.638156 52.650462 
L 216.8478 52.764094 
L 217.267087 53.306453 
L 217.476731 53.319693 
L 217.686375 52.940663 
L 218.52495 50.237428 
L 218.734594 50.086379 
L 218.944237 50.458137 
L 219.573169 53.028757 
L 219.782812 53.238274 
L 219.992456 52.962786 
L 220.411744 51.468633 
L 220.831031 50.03125 
L 221.040675 50.013835 
L 221.459962 51.516672 
L 221.87925 53.082228 
L 222.298537 53.745374 
L 222.717825 53.91857 
L 222.927469 53.767471 
L 223.5564 52.437508 
L 223.766044 52.507682 
L 224.185331 54.236665 
L 224.394975 55.098159 
L 224.604619 55.383998 
L 224.814262 55.056131 
L 225.652837 51.932474 
L 225.862481 52.372903 
L 226.281769 56.056984 
L 226.701056 59.291851 
L 226.9107 59.732882 
L 227.120344 59.719045 
L 227.539631 59.518451 
L 228.168562 59.280628 
L 228.797494 58.915717 
L 229.007137 58.992859 
L 229.216781 59.324543 
L 229.636069 60.98072 
L 230.055356 62.523682 
L 230.265 62.585903 
L 230.684287 62.227244 
L 230.893931 62.464196 
L 231.313219 63.406042 
L 231.522862 63.438198 
L 231.94215 62.275008 
L 232.361437 61.143545 
L 232.571081 61.164328 
L 232.780725 61.832232 
L 233.200012 65.28896 
L 233.6193 69.02068 
L 233.828944 70.050899 
L 234.038587 70.486961 
L 234.248231 70.390246 
L 234.877162 68.877794 
L 235.086806 69.022884 
L 236.763956 74.005601 
L 237.602531 77.743212 
L 237.812175 77.985874 
L 238.021819 77.733978 
L 239.070037 74.849393 
L 239.279681 74.99067 
L 239.908612 76.313017 
L 240.537544 76.825003 
L 240.956831 77.442844 
L 241.166475 77.259583 
L 241.585762 75.069576 
L 242.00505 73.012143 
L 242.214694 72.920806 
L 242.424337 73.354557 
L 243.262912 76.560776 
L 243.472556 76.694785 
L 243.891844 76.267977 
L 244.101487 76.271857 
L 244.730419 77.101316 
L 244.940062 76.958905 
L 245.149706 76.466558 
L 245.568994 74.498873 
L 245.988281 72.430115 
L 246.197925 72.182185 
L 246.407569 72.602434 
L 247.0365 74.885028 
L 247.246144 75.257768 
L 247.455787 75.302469 
L 247.665431 74.982656 
L 248.084719 73.602499 
L 248.71365 71.464552 
L 248.923294 71.127318 
L 249.132937 71.065894 
L 249.552225 71.244702 
L 249.761869 71.198539 
L 249.971512 70.96918 
L 250.3908 69.925802 
L 251.229375 67.275347 
L 251.648662 66.873034 
L 252.277594 66.771637 
L 252.487237 66.536195 
L 252.906525 65.528986 
L 253.7451 62.810442 
L 253.954744 62.519711 
L 254.164387 62.473552 
L 254.583675 62.878863 
L 255.002962 63.367204 
L 255.212606 63.326951 
L 255.42225 62.980382 
L 255.841537 61.656358 
L 256.470469 59.599107 
L 256.680112 59.406932 
L 257.309044 59.609592 
L 258.147619 58.371641 
L 258.566906 58.501706 
L 258.77655 58.427175 
L 259.195837 57.71307 
L 259.824769 56.089972 
L 260.034412 55.94967 
L 260.244056 56.271129 
L 260.872987 58.133674 
L 261.082631 58.365195 
L 261.292275 58.306971 
L 261.501919 57.965695 
L 262.550137 55.182292 
L 263.388712 54.073362 
L 263.598356 54.246062 
L 264.017644 55.200017 
L 264.227287 55.305511 
L 264.436931 54.770399 
L 265.065862 51.839976 
L 265.275506 51.421016 
L 265.48515 51.514661 
L 265.694794 52.193838 
L 266.323725 55.333325 
L 266.533369 55.270266 
L 266.952656 53.602888 
L 267.371944 52.313787 
L 267.581587 52.554122 
L 267.791231 53.72131 
L 268.420162 59.670837 
L 268.629806 60.213151 
L 268.83945 59.81291 
L 269.468381 57.339003 
L 269.678025 57.191628 
L 269.887669 57.769275 
L 270.306956 60.795134 
L 270.726244 63.771914 
L 271.145531 65.227346 
L 271.984106 66.481755 
L 272.19375 67.343264 
L 272.19375 67.343264 
" style="fill:none;stroke:#4c72b0;stroke-linecap:round;stroke-width:3;"/>
   </g>
   <g id="line2d_2">
    <path clip-path="url(#pd0b81e658c)" d="M 62.55 61.416571 
L 62.759644 61.187949 
L 62.969288 61.300587 
L 63.807863 62.377907 
L 64.017506 62.172643 
L 64.436794 61.479424 
L 64.646438 61.586757 
L 65.065725 63.174736 
L 65.485013 65.050921 
L 65.694656 65.628116 
L 65.9043 65.842187 
L 66.113944 65.619588 
L 67.162163 62.796923 
L 67.371806 62.959442 
L 67.791094 64.378707 
L 68.210381 65.44776 
L 68.420025 65.349233 
L 68.839313 64.307988 
L 69.468244 62.5741 
L 69.677887 62.463758 
L 69.887531 62.60658 
L 70.516463 63.444236 
L 70.726106 63.32568 
L 70.93575 62.671736 
L 71.564681 59.517977 
L 71.774325 59.541603 
L 72.6129 61.715368 
L 72.822544 61.662174 
L 73.241831 60.930575 
L 73.870762 59.48417 
L 74.29005 58.961266 
L 74.918981 58.607015 
L 75.338269 57.844515 
L 75.757556 56.925846 
L 76.176844 56.586646 
L 76.386488 56.454079 
L 76.805775 55.787126 
L 77.64435 54.079109 
L 78.063637 52.128732 
L 78.482925 49.620239 
L 78.692569 48.881556 
L 78.902213 48.629275 
L 79.111856 48.744857 
L 79.740787 49.679913 
L 79.950431 49.273893 
L 80.369719 46.396733 
L 80.99865 41.58008 
L 81.208294 40.72912 
L 81.417937 40.38622 
L 81.627581 40.518953 
L 82.466156 42.061662 
L 82.6758 41.885774 
L 83.095088 40.326717 
L 83.514375 39.106893 
L 83.724019 39.315201 
L 84.143306 40.733443 
L 84.562594 42.070918 
L 84.772238 42.201206 
L 84.981881 41.735727 
L 85.610813 39.20268 
L 85.820456 39.090004 
L 86.0301 39.616945 
L 86.449388 42.749337 
L 86.868675 46.225885 
L 87.078319 46.565678 
L 87.287962 45.859879 
L 87.916894 42.27 
L 88.126537 41.862743 
L 88.336181 42.295418 
L 88.755469 45.520398 
L 89.174756 48.424202 
L 89.3844 48.906772 
L 89.594044 48.981034 
L 90.642263 48.604133 
L 90.851906 48.643271 
L 91.06155 48.852557 
L 91.480838 49.918629 
L 92.109769 51.554258 
L 92.948344 52.921761 
L 93.157987 53.831078 
L 93.786919 58.315319 
L 93.996562 58.72645 
L 94.206206 58.083168 
L 94.835138 54.463754 
L 95.044781 53.88148 
L 95.254425 53.834073 
L 95.464069 54.375566 
L 96.093 56.756266 
L 96.302644 56.851775 
L 96.721931 56.608997 
L 97.141219 56.875693 
L 97.350863 57.004228 
L 97.560506 56.949194 
L 97.979794 56.580394 
L 98.189437 56.552882 
L 98.399081 56.761617 
L 98.818369 57.925884 
L 99.656944 61.191161 
L 100.495519 62.488595 
L 100.705163 62.887951 
L 100.914806 63.032963 
L 101.12445 62.805455 
L 101.963025 60.891838 
L 102.172669 60.87436 
L 102.382312 61.280527 
L 103.011244 63.172347 
L 103.220888 63.039156 
L 103.849819 61.826545 
L 104.059462 61.840455 
L 104.47875 62.465257 
L 104.898037 63.264295 
L 105.107681 63.361869 
L 105.317325 63.10037 
L 105.736613 61.675389 
L 106.1559 59.8051 
L 106.365544 59.511408 
L 106.575187 60.189858 
L 107.413762 66.816775 
L 107.623406 67.356194 
L 107.83305 67.244719 
L 108.252337 65.417761 
L 108.671625 63.337219 
L 109.300556 61.887632 
L 109.929487 60.448968 
L 110.139131 60.440254 
L 110.558419 60.784779 
L 110.768062 60.647226 
L 111.18735 59.406782 
L 112.025925 56.09084 
L 113.074144 53.227695 
L 113.493431 51.71135 
L 113.703075 51.251524 
L 113.912719 51.092041 
L 114.122362 51.285203 
L 114.751294 52.868763 
L 114.960938 52.587639 
L 115.380225 50.267906 
L 116.009156 46.467276 
L 116.638087 43.6538 
L 117.057375 42.66974 
L 117.267019 42.595664 
L 117.89595 42.970128 
L 118.105594 42.821795 
L 118.315237 42.217782 
L 118.734525 39.417775 
L 119.153812 36.451601 
L 119.5731 34.902391 
L 119.992387 34.106196 
L 120.202031 33.95946 
L 120.411675 34.111851 
L 121.25025 36.072512 
L 121.459894 35.824872 
L 122.717756 32.463728 
L 123.346688 30.889483 
L 123.765975 30.46283 
L 123.975619 30.608036 
L 124.60455 31.665147 
L 124.814194 31.571153 
L 125.233481 31.082914 
L 125.443125 31.209232 
L 126.072056 32.569943 
L 126.2817 32.620215 
L 126.491344 32.354285 
L 126.910631 31.035167 
L 127.120275 30.335061 
L 127.329919 30.061756 
L 127.539562 30.551144 
L 128.378137 35.067833 
L 128.587781 35.264837 
L 128.797425 34.979167 
L 129.216712 33.281922 
L 129.845644 30.724315 
L 130.055287 30.403004 
L 130.264931 30.432315 
L 130.684219 31.276103 
L 131.103506 31.961774 
L 131.522794 32.171472 
L 131.942081 32.749747 
L 132.361369 33.21635 
L 132.571012 33.13109 
L 133.199944 32.280444 
L 133.619231 31.259751 
L 134.66745 26.283377 
L 134.877094 26.062985 
L 135.506025 25.946636 
L 135.715669 25.710443 
L 135.925312 25.210465 
L 136.3446 23.311012 
L 137.183175 18.059145 
L 137.392819 17.886364 
L 137.602463 18.280444 
L 139.069969 22.556196 
L 139.279612 22.850277 
L 139.489256 22.711218 
L 140.118187 21.396958 
L 140.327831 21.239458 
L 140.537475 21.283131 
L 140.747119 21.512187 
L 140.956762 21.973167 
L 141.166406 22.821451 
L 141.585694 26.27634 
L 142.843556 39.972845 
L 143.472487 44.725731 
L 144.101419 49.115194 
L 144.520706 54.541383 
L 145.359281 66.324488 
L 147.036431 84.391478 
L 147.455719 89.209143 
L 147.665362 90.633484 
L 147.875006 91.173788 
L 148.08465 91.30867 
L 148.294294 91.674592 
L 148.503937 92.883666 
L 148.713581 95.257828 
L 149.132869 104.011473 
L 149.552156 114.866139 
L 149.7618 117.072061 
L 149.971444 115.280388 
L 151.019662 92.625051 
L 151.229306 91.220642 
L 151.43895 90.950298 
L 151.648594 91.034716 
L 151.858238 90.650751 
L 152.067881 89.193186 
L 154.164319 65.419095 
L 155.422181 48.782087 
L 155.841469 47.061764 
L 156.260756 45.446545 
L 156.680044 41.947711 
L 157.937906 26.538415 
L 158.357194 24.880941 
L 158.776481 24.123032 
L 159.615056 21.4772 
L 159.8247 21.593693 
L 160.243987 22.22018 
L 160.453631 22.266226 
L 160.872919 21.885867 
L 161.292206 21.492657 
L 161.711494 21.369213 
L 161.921137 21.477 
L 162.130781 21.807581 
L 162.340425 22.457885 
L 162.759712 24.878795 
L 164.017575 34.470104 
L 164.227219 34.980992 
L 164.436862 35.191957 
L 164.85615 35.353352 
L 165.065794 35.818823 
L 165.485081 38.289759 
L 165.904369 40.831347 
L 166.323656 41.864159 
L 166.742944 42.966231 
L 167.371875 44.803773 
L 167.791162 45.100509 
L 168.420094 45.347195 
L 168.629737 45.271343 
L 169.258669 44.740127 
L 169.468312 44.999997 
L 169.8876 46.326053 
L 170.516531 48.472439 
L 170.726175 48.53084 
L 170.935819 48.034215 
L 171.56475 45.585877 
L 171.774394 45.161026 
L 171.984037 45.047105 
L 172.193681 45.265379 
L 172.612969 46.494753 
L 173.2419 48.771384 
L 173.451544 49.204214 
L 173.661187 49.301305 
L 173.870831 49.105953 
L 174.709406 47.578257 
L 174.91905 47.547172 
L 175.757625 48.439511 
L 176.176912 47.849179 
L 176.5962 47.2142 
L 176.805844 47.124689 
L 177.015487 47.301095 
L 177.434775 48.061371 
L 177.644419 47.959112 
L 177.854062 47.116322 
L 178.482994 43.312068 
L 178.692637 42.837262 
L 178.902281 42.781126 
L 179.321569 43.325447 
L 179.740856 43.770205 
L 179.9505 43.625509 
L 180.369787 43.002312 
L 180.579431 42.915559 
L 181.418006 43.503975 
L 181.837294 43.08267 
L 182.466225 42.212484 
L 182.675869 42.299773 
L 183.095156 43.249067 
L 183.724087 45.442835 
L 184.772306 50.145752 
L 184.98195 50.442602 
L 185.191594 50.447947 
L 185.610881 49.898778 
L 185.820525 49.626498 
L 186.030169 49.606447 
L 186.239812 49.995155 
L 186.6591 51.655648 
L 188.126606 58.21726 
L 188.545894 59.162415 
L 189.174825 59.757374 
L 189.594112 60.222675 
L 190.642331 61.822818 
L 191.061619 62.604751 
L 191.480906 63.718272 
L 191.69055 63.999318 
L 191.900194 63.946424 
L 193.158056 62.15109 
L 193.577344 61.515351 
L 193.786987 61.346848 
L 193.996631 61.352835 
L 194.206275 61.527367 
L 194.625563 62.318321 
L 195.04485 63.257437 
L 195.254494 63.517722 
L 195.464137 63.5653 
L 195.673781 63.4228 
L 196.093069 62.677037 
L 196.931644 60.926997 
L 197.141287 61.037905 
L 197.350931 61.668234 
L 198.189506 65.500158 
L 198.39915 65.682636 
L 198.608794 65.447409 
L 199.028081 63.814411 
L 200.0763 58.126366 
L 200.285944 58.407595 
L 201.124519 61.182632 
L 201.334162 61.232238 
L 201.543806 60.832566 
L 202.172737 59.054159 
L 202.382381 59.140847 
L 203.011312 59.955801 
L 203.220956 59.861513 
L 203.640244 59.136861 
L 204.059531 58.464376 
L 204.269175 58.673339 
L 205.10775 61.328503 
L 205.317394 61.316219 
L 205.946325 60.457837 
L 206.365612 60.074291 
L 206.7849 60.002236 
L 206.994544 59.800484 
L 207.833119 58.235741 
L 208.042762 58.404726 
L 208.671694 59.227958 
L 209.300625 59.818657 
L 209.719912 60.151094 
L 209.929556 60.034329 
L 210.558487 59.2042 
L 210.768131 59.179189 
L 211.397062 59.589382 
L 211.81635 60.095696 
L 212.445281 61.51574 
L 212.654925 61.585091 
L 212.864569 61.231837 
L 213.283856 59.716201 
L 214.122431 56.450848 
L 214.541719 55.69396 
L 214.751362 55.571877 
L 214.961006 55.611155 
L 215.380294 56.14399 
L 215.799581 56.974552 
L 216.009225 57.090033 
L 216.218869 56.758708 
L 216.638156 55.503292 
L 216.8478 55.264028 
L 217.057444 55.505333 
L 217.476731 56.348487 
L 217.686375 56.408709 
L 217.896019 56.090544 
L 218.315306 54.311468 
L 218.734594 52.163653 
L 218.944237 51.870994 
L 219.153881 52.325856 
L 219.782812 54.59367 
L 219.992456 54.717269 
L 220.2021 54.362889 
L 221.040675 51.024024 
L 221.250319 51.340386 
L 222.088894 54.139489 
L 222.298537 54.364546 
L 222.508181 54.313209 
L 222.927469 54.06373 
L 223.137112 54.352813 
L 223.766044 56.247007 
L 223.975687 56.250003 
L 224.394975 55.340544 
L 224.814262 54.444614 
L 225.023906 54.351887 
L 225.23355 54.648599 
L 226.281769 58.124365 
L 226.491412 58.279246 
L 226.701056 58.128544 
L 226.9107 57.583323 
L 227.120344 56.52388 
L 227.958919 50.348244 
L 228.168562 51.217572 
L 228.797494 56.617776 
L 229.007137 57.408918 
L 229.216781 57.584194 
L 229.426425 57.255082 
L 229.845712 56.067066 
L 230.055356 55.911165 
L 230.265 56.370449 
L 230.684287 57.810632 
L 230.893931 58.005428 
L 231.103575 57.681489 
L 231.522862 56.030975 
L 231.94215 54.446482 
L 232.151794 54.496984 
L 232.361437 55.418937 
L 233.200012 60.881044 
L 233.409656 61.368834 
L 233.6193 61.322872 
L 234.248231 60.107496 
L 234.457875 60.397998 
L 235.29645 62.719561 
L 236.554312 64.434155 
L 236.9736 65.741048 
L 237.602531 67.948741 
L 237.812175 68.006209 
L 238.021819 67.558178 
L 238.65075 65.595818 
L 238.860394 65.440064 
L 239.070037 65.780306 
L 239.489325 68.091747 
L 240.118256 71.979667 
L 240.3279 72.484823 
L 240.537544 72.36418 
L 240.956831 70.436501 
L 241.376119 68.236115 
L 241.585762 67.602793 
L 241.795406 67.345761 
L 242.00505 67.487492 
L 242.633981 68.787179 
L 242.843625 68.799993 
L 243.262912 68.131628 
L 243.6822 67.237288 
L 243.891844 66.985234 
L 244.101487 67.012792 
L 244.520775 67.780399 
L 245.149706 68.957386 
L 245.35935 69.108855 
L 245.778637 68.99935 
L 246.197925 68.722549 
L 246.407569 68.715197 
L 246.617212 68.942536 
L 246.826856 69.522375 
L 247.455787 72.199022 
L 247.665431 72.368106 
L 247.875075 72.007571 
L 248.923294 68.482482 
L 249.132937 68.56579 
L 249.552225 69.029593 
L 249.761869 68.899076 
L 250.3908 67.962417 
L 250.600444 68.072242 
L 250.810087 68.467179 
L 251.229375 69.988907 
L 251.648662 71.469887 
L 251.858306 71.677706 
L 252.06795 71.479063 
L 252.487237 70.24737 
L 253.325812 67.033937 
L 253.7451 66.270173 
L 253.954744 66.250213 
L 254.374031 66.399415 
L 254.583675 66.208717 
L 255.002962 64.938794 
L 256.051181 59.872779 
L 256.260825 59.507735 
L 256.470469 59.426033 
L 256.680112 59.580956 
L 257.309044 60.347091 
L 257.518687 60.290918 
L 257.937975 59.660834 
L 260.034412 55.107813 
L 260.244056 55.078552 
L 260.4537 55.327749 
L 261.501919 57.239643 
L 261.711562 57.035809 
L 262.13085 56.03728 
L 262.759781 54.513334 
L 262.969425 54.377901 
L 263.179069 54.495536 
L 263.598356 55.209186 
L 264.227287 56.464338 
L 264.856219 57.273041 
L 265.694794 59.680814 
L 265.904437 59.68197 
L 266.114081 59.352702 
L 266.952656 57.425611 
L 267.1623 57.898827 
L 268.210519 62.554926 
L 268.420162 62.248157 
L 268.83945 59.904459 
L 269.258737 57.912483 
L 269.468381 57.848935 
L 269.678025 58.367754 
L 270.097312 60.716289 
L 270.5166 63.332246 
L 270.935887 64.463299 
L 271.145531 64.525158 
L 271.564819 64.177257 
L 271.984106 63.904272 
L 272.19375 63.994345 
L 272.19375 63.994345 
" style="fill:none;stroke:#dd8452;stroke-linecap:round;stroke-width:3;"/>
   </g>
   <g id="patch_3">
    <path d="M 62.55 166.7 
L 62.55 10.8 
" style="fill:none;stroke:#262626;stroke-linecap:square;stroke-linejoin:miter;stroke-width:1.25;"/>
   </g>
   <g id="patch_4">
    <path d="M 272.19375 166.7 
L 272.19375 10.8 
" style="fill:none;stroke:#262626;stroke-linecap:square;stroke-linejoin:miter;stroke-width:1.25;"/>
   </g>
   <g id="patch_5">
    <path d="M 62.55 166.7 
L 272.19375 166.7 
" style="fill:none;stroke:#262626;stroke-linecap:square;stroke-linejoin:miter;stroke-width:1.25;"/>
   </g>
   <g id="patch_6">
    <path d="M 62.55 10.8 
L 272.19375 10.8 
" style="fill:none;stroke:#262626;stroke-linecap:square;stroke-linejoin:miter;stroke-width:1.25;"/>
   </g>
  </g>
  <g id="axes_2">
   <g id="patch_7">
    <path d="M 355.55625 166.7 
L 565.2 166.7 
L 565.2 10.8 
L 355.55625 10.8 
z
" style="fill:#ffffff;"/>
   </g>
   <g id="matplotlib.axis_3">
    <g id="xtick_7">
     <g id="text_13">
      <!-- 25 -->
      <g style="fill:#262626;" transform="translate(385.688633 184.558281)scale(0.11 -0.11)">
       <use xlink:href="#DejaVuSans-50"/>
       <use x="63.623047" xlink:href="#DejaVuSans-53"/>
      </g>
     </g>
    </g>
    <g id="xtick_8">
     <g id="text_14">
      <!-- 50 -->
      <g style="fill:#262626;" transform="translate(426.045055 184.558281)scale(0.11 -0.11)">
       <use xlink:href="#DejaVuSans-53"/>
       <use x="63.623047" xlink:href="#DejaVuSans-48"/>
      </g>
     </g>
    </g>
    <g id="xtick_9">
     <g id="text_15">
      <!-- 75 -->
      <g style="fill:#262626;" transform="translate(466.401477 184.558281)scale(0.11 -0.11)">
       <defs>
        <path d="M 8.203125 72.90625 
L 55.078125 72.90625 
L 55.078125 68.703125 
L 28.609375 0 
L 18.3125 0 
L 43.21875 64.59375 
L 8.203125 64.59375 
z
" id="DejaVuSans-55"/>
       </defs>
       <use xlink:href="#DejaVuSans-55"/>
       <use x="63.623047" xlink:href="#DejaVuSans-53"/>
      </g>
     </g>
    </g>
    <g id="xtick_10">
     <g id="text_16">
      <!-- 100 -->
      <g style="fill:#262626;" transform="translate(503.258524 184.558281)scale(0.11 -0.11)">
       <use xlink:href="#DejaVuSans-49"/>
       <use x="63.623047" xlink:href="#DejaVuSans-48"/>
       <use x="127.246094" xlink:href="#DejaVuSans-48"/>
      </g>
     </g>
    </g>
    <g id="xtick_11">
     <g id="text_17">
      <!-- 125 -->
      <g style="fill:#262626;" transform="translate(543.614946 184.558281)scale(0.11 -0.11)">
       <use xlink:href="#DejaVuSans-49"/>
       <use x="63.623047" xlink:href="#DejaVuSans-50"/>
       <use x="127.246094" xlink:href="#DejaVuSans-53"/>
      </g>
     </g>
    </g>
    <g id="text_18">
     <!-- Frequency (Hz) -->
     <g style="fill:#262626;" transform="translate(400.050625 203.003438)scale(0.16 -0.16)">
      <defs>
       <path d="M 9.8125 72.90625 
L 51.703125 72.90625 
L 51.703125 64.59375 
L 19.671875 64.59375 
L 19.671875 43.109375 
L 48.578125 43.109375 
L 48.578125 34.8125 
L 19.671875 34.8125 
L 19.671875 0 
L 9.8125 0 
z
" id="DejaVuSans-70"/>
       <path d="M 41.109375 46.296875 
Q 39.59375 47.171875 37.8125 47.578125 
Q 36.03125 48 33.890625 48 
Q 26.265625 48 22.1875 43.046875 
Q 18.109375 38.09375 18.109375 28.8125 
L 18.109375 0 
L 9.078125 0 
L 9.078125 54.6875 
L 18.109375 54.6875 
L 18.109375 46.1875 
Q 20.953125 51.171875 25.484375 53.578125 
Q 30.03125 56 36.53125 56 
Q 37.453125 56 38.578125 55.875 
Q 39.703125 55.765625 41.0625 55.515625 
z
" id="DejaVuSans-114"/>
       <path d="M 14.796875 27.296875 
Q 14.796875 17.390625 18.875 11.75 
Q 22.953125 6.109375 30.078125 6.109375 
Q 37.203125 6.109375 41.296875 11.75 
Q 45.40625 17.390625 45.40625 27.296875 
Q 45.40625 37.203125 41.296875 42.84375 
Q 37.203125 48.484375 30.078125 48.484375 
Q 22.953125 48.484375 18.875 42.84375 
Q 14.796875 37.203125 14.796875 27.296875 
z
M 45.40625 8.203125 
Q 42.578125 3.328125 38.25 0.953125 
Q 33.9375 -1.421875 27.875 -1.421875 
Q 17.96875 -1.421875 11.734375 6.484375 
Q 5.515625 14.40625 5.515625 27.296875 
Q 5.515625 40.1875 11.734375 48.09375 
Q 17.96875 56 27.875 56 
Q 33.9375 56 38.25 53.625 
Q 42.578125 51.265625 45.40625 46.390625 
L 45.40625 54.6875 
L 54.390625 54.6875 
L 54.390625 -20.796875 
L 45.40625 -20.796875 
z
" id="DejaVuSans-113"/>
       <path d="M 8.5 21.578125 
L 8.5 54.6875 
L 17.484375 54.6875 
L 17.484375 21.921875 
Q 17.484375 14.15625 20.5 10.265625 
Q 23.53125 6.390625 29.59375 6.390625 
Q 36.859375 6.390625 41.078125 11.03125 
Q 45.3125 15.671875 45.3125 23.6875 
L 45.3125 54.6875 
L 54.296875 54.6875 
L 54.296875 0 
L 45.3125 0 
L 45.3125 8.40625 
Q 42.046875 3.421875 37.71875 1 
Q 33.40625 -1.421875 27.6875 -1.421875 
Q 18.265625 -1.421875 13.375 4.4375 
Q 8.5 10.296875 8.5 21.578125 
z
M 31.109375 56 
z
" id="DejaVuSans-117"/>
       <path d="M 48.78125 52.59375 
L 48.78125 44.1875 
Q 44.96875 46.296875 41.140625 47.34375 
Q 37.3125 48.390625 33.40625 48.390625 
Q 24.65625 48.390625 19.8125 42.84375 
Q 14.984375 37.3125 14.984375 27.296875 
Q 14.984375 17.28125 19.8125 11.734375 
Q 24.65625 6.203125 33.40625 6.203125 
Q 37.3125 6.203125 41.140625 7.25 
Q 44.96875 8.296875 48.78125 10.40625 
L 48.78125 2.09375 
Q 45.015625 0.34375 40.984375 -0.53125 
Q 36.96875 -1.421875 32.421875 -1.421875 
Q 20.0625 -1.421875 12.78125 6.34375 
Q 5.515625 14.109375 5.515625 27.296875 
Q 5.515625 40.671875 12.859375 48.328125 
Q 20.21875 56 33.015625 56 
Q 37.15625 56 41.109375 55.140625 
Q 45.0625 54.296875 48.78125 52.59375 
z
" id="DejaVuSans-99"/>
       <path d="M 32.171875 -5.078125 
Q 28.375 -14.84375 24.75 -17.8125 
Q 21.140625 -20.796875 15.09375 -20.796875 
L 7.90625 -20.796875 
L 7.90625 -13.28125 
L 13.1875 -13.28125 
Q 16.890625 -13.28125 18.9375 -11.515625 
Q 21 -9.765625 23.484375 -3.21875 
L 25.09375 0.875 
L 2.984375 54.6875 
L 12.5 54.6875 
L 29.59375 11.921875 
L 46.6875 54.6875 
L 56.203125 54.6875 
z
" id="DejaVuSans-121"/>
       <path d="M 9.8125 72.90625 
L 19.671875 72.90625 
L 19.671875 43.015625 
L 55.515625 43.015625 
L 55.515625 72.90625 
L 65.375 72.90625 
L 65.375 0 
L 55.515625 0 
L 55.515625 34.71875 
L 19.671875 34.71875 
L 19.671875 0 
L 9.8125 0 
z
" id="DejaVuSans-72"/>
       <path d="M 5.515625 54.6875 
L 48.1875 54.6875 
L 48.1875 46.484375 
L 14.40625 7.171875 
L 48.1875 7.171875 
L 48.1875 0 
L 4.296875 0 
L 4.296875 8.203125 
L 38.09375 47.515625 
L 5.515625 47.515625 
z
" id="DejaVuSans-122"/>
      </defs>
      <use xlink:href="#DejaVuSans-70"/>
      <use x="50.269531" xlink:href="#DejaVuSans-114"/>
      <use x="89.132812" xlink:href="#DejaVuSans-101"/>
      <use x="150.65625" xlink:href="#DejaVuSans-113"/>
      <use x="214.132812" xlink:href="#DejaVuSans-117"/>
      <use x="277.511719" xlink:href="#DejaVuSans-101"/>
      <use x="339.035156" xlink:href="#DejaVuSans-110"/>
      <use x="402.414062" xlink:href="#DejaVuSans-99"/>
      <use x="457.394531" xlink:href="#DejaVuSans-121"/>
      <use x="516.574219" xlink:href="#DejaVuSans-32"/>
      <use x="548.361328" xlink:href="#DejaVuSans-40"/>
      <use x="587.375" xlink:href="#DejaVuSans-72"/>
      <use x="662.570312" xlink:href="#DejaVuSans-122"/>
      <use x="715.060547" xlink:href="#DejaVuSans-41"/>
     </g>
    </g>
   </g>
   <g id="matplotlib.axis_4">
    <g id="ytick_5">
     <g id="text_19">
      <!-- −12.5 -->
      <g style="fill:#262626;" transform="translate(312.346406 163.357662)scale(0.11 -0.11)">
       <defs>
        <path d="M 10.6875 12.40625 
L 21 12.40625 
L 21 0 
L 10.6875 0 
z
" id="DejaVuSans-46"/>
       </defs>
       <use xlink:href="#DejaVuSans-8722"/>
       <use x="83.789062" xlink:href="#DejaVuSans-49"/>
       <use x="147.412109" xlink:href="#DejaVuSans-50"/>
       <use x="211.035156" xlink:href="#DejaVuSans-46"/>
       <use x="242.822266" xlink:href="#DejaVuSans-53"/>
      </g>
     </g>
    </g>
    <g id="ytick_6">
     <g id="text_20">
      <!-- −10.0 -->
      <g style="fill:#262626;" transform="translate(312.346406 138.091862)scale(0.11 -0.11)">
       <use xlink:href="#DejaVuSans-8722"/>
       <use x="83.789062" xlink:href="#DejaVuSans-49"/>
       <use x="147.412109" xlink:href="#DejaVuSans-48"/>
       <use x="211.035156" xlink:href="#DejaVuSans-46"/>
       <use x="242.822266" xlink:href="#DejaVuSans-48"/>
      </g>
     </g>
    </g>
    <g id="ytick_7">
     <g id="text_21">
      <!-- −7.5 -->
      <g style="fill:#262626;" transform="translate(319.345156 112.826061)scale(0.11 -0.11)">
       <use xlink:href="#DejaVuSans-8722"/>
       <use x="83.789062" xlink:href="#DejaVuSans-55"/>
       <use x="147.412109" xlink:href="#DejaVuSans-46"/>
       <use x="179.199219" xlink:href="#DejaVuSans-53"/>
      </g>
     </g>
    </g>
    <g id="ytick_8">
     <g id="text_22">
      <!-- −5.0 -->
      <g style="fill:#262626;" transform="translate(319.345156 87.56026)scale(0.11 -0.11)">
       <use xlink:href="#DejaVuSans-8722"/>
       <use x="83.789062" xlink:href="#DejaVuSans-53"/>
       <use x="147.412109" xlink:href="#DejaVuSans-46"/>
       <use x="179.199219" xlink:href="#DejaVuSans-48"/>
      </g>
     </g>
    </g>
    <g id="ytick_9">
     <g id="text_23">
      <!-- −2.5 -->
      <g style="fill:#262626;" transform="translate(319.345156 62.294459)scale(0.11 -0.11)">
       <use xlink:href="#DejaVuSans-8722"/>
       <use x="83.789062" xlink:href="#DejaVuSans-50"/>
       <use x="147.412109" xlink:href="#DejaVuSans-46"/>
       <use x="179.199219" xlink:href="#DejaVuSans-53"/>
      </g>
     </g>
    </g>
    <g id="ytick_10">
     <g id="text_24">
      <!-- 0.0 -->
      <g style="fill:#262626;" transform="translate(328.562812 37.028659)scale(0.11 -0.11)">
       <use xlink:href="#DejaVuSans-48"/>
       <use x="63.623047" xlink:href="#DejaVuSans-46"/>
       <use x="95.410156" xlink:href="#DejaVuSans-48"/>
      </g>
     </g>
    </g>
    <g id="text_25">
     <!-- log power -->
     <g style="fill:#262626;" transform="translate(305.018906 128.21625)rotate(-90)scale(0.16 -0.16)">
      <defs>
       <path d="M 45.40625 27.984375 
Q 45.40625 37.75 41.375 43.109375 
Q 37.359375 48.484375 30.078125 48.484375 
Q 22.859375 48.484375 18.828125 43.109375 
Q 14.796875 37.75 14.796875 27.984375 
Q 14.796875 18.265625 18.828125 12.890625 
Q 22.859375 7.515625 30.078125 7.515625 
Q 37.359375 7.515625 41.375 12.890625 
Q 45.40625 18.265625 45.40625 27.984375 
z
M 54.390625 6.78125 
Q 54.390625 -7.171875 48.1875 -13.984375 
Q 42 -20.796875 29.203125 -20.796875 
Q 24.46875 -20.796875 20.265625 -20.09375 
Q 16.0625 -19.390625 12.109375 -17.921875 
L 12.109375 -9.1875 
Q 16.0625 -11.328125 19.921875 -12.34375 
Q 23.78125 -13.375 27.78125 -13.375 
Q 36.625 -13.375 41.015625 -8.765625 
Q 45.40625 -4.15625 45.40625 5.171875 
L 45.40625 9.625 
Q 42.625 4.78125 38.28125 2.390625 
Q 33.9375 0 27.875 0 
Q 17.828125 0 11.671875 7.65625 
Q 5.515625 15.328125 5.515625 27.984375 
Q 5.515625 40.671875 11.671875 48.328125 
Q 17.828125 56 27.875 56 
Q 33.9375 56 38.28125 53.609375 
Q 42.625 51.21875 45.40625 46.390625 
L 45.40625 54.6875 
L 54.390625 54.6875 
z
" id="DejaVuSans-103"/>
       <path d="M 4.203125 54.6875 
L 13.1875 54.6875 
L 24.421875 12.015625 
L 35.59375 54.6875 
L 46.1875 54.6875 
L 57.421875 12.015625 
L 68.609375 54.6875 
L 77.59375 54.6875 
L 63.28125 0 
L 52.6875 0 
L 40.921875 44.828125 
L 29.109375 0 
L 18.5 0 
z
" id="DejaVuSans-119"/>
      </defs>
      <use xlink:href="#DejaVuSans-108"/>
      <use x="27.783203" xlink:href="#DejaVuSans-111"/>
      <use x="88.964844" xlink:href="#DejaVuSans-103"/>
      <use x="152.441406" xlink:href="#DejaVuSans-32"/>
      <use x="184.228516" xlink:href="#DejaVuSans-112"/>
      <use x="247.705078" xlink:href="#DejaVuSans-111"/>
      <use x="308.886719" xlink:href="#DejaVuSans-119"/>
      <use x="390.673828" xlink:href="#DejaVuSans-101"/>
      <use x="452.197266" xlink:href="#DejaVuSans-114"/>
     </g>
    </g>
   </g>
   <g id="line2d_3">
    <path clip-path="url(#p32370aa0d6)" d="M 355.55625 52.873231 
L 358.781538 63.136363 
L 362.006827 44.042793 
L 365.232115 17.886364 
L 368.457404 19.788486 
L 371.682692 44.478268 
L 374.907981 45.272707 
L 378.133269 39.844155 
L 381.358558 33.197585 
L 384.583846 35.86381 
L 387.809135 45.835535 
L 391.034423 53.115086 
L 394.259712 63.554395 
L 397.485 59.220145 
L 400.710288 66.485331 
L 403.935577 76.260965 
L 407.160865 94.089884 
L 410.386154 80.552004 
L 413.611442 70.248388 
L 416.836731 119.864453 
L 420.062019 82.761258 
L 423.287308 97.907573 
L 426.512596 93.716111 
L 429.737885 82.719246 
L 432.963173 122.059179 
L 436.188462 85.965251 
L 439.41375 116.687687 
L 442.639038 93.592013 
L 445.864327 114.298209 
L 449.089615 97.843594 
L 452.314904 89.88412 
L 455.540192 110.650685 
L 458.765481 96.300742 
L 461.990769 98.599858 
L 465.216058 102.733284 
L 468.441346 144.344948 
L 471.666635 116.005695 
L 474.891923 86.582431 
L 478.117212 94.65784 
L 481.3425 99.465829 
L 484.567788 98.19557 
L 487.793077 120.498814 
L 491.018365 95.531909 
L 494.243654 138.294321 
L 497.468942 112.924779 
L 500.694231 106.922134 
L 503.919519 100.130309 
L 507.144808 94.815497 
L 510.370096 137.387825 
L 513.595385 110.442097 
L 516.820673 102.468263 
L 520.045962 124.333544 
L 523.27125 114.353843 
L 526.496538 122.176911 
L 529.721827 93.062227 
L 532.947115 120.935772 
L 536.172404 96.667546 
L 539.397692 108.376 
L 542.622981 108.631188 
L 545.848269 71.206408 
L 549.073558 94.802448 
L 552.298846 94.828462 
L 555.524135 120.150693 
L 558.749423 107.150124 
L 561.974712 101.434444 
L 565.2 132.503505 
L 568.425288 103.278792 
L 571.650577 128.4063 
L 574.875865 127.00242 
L 577 116.213433 
" style="fill:none;stroke:#4c72b0;stroke-linecap:round;stroke-width:3;"/>
   </g>
   <g id="line2d_4">
    <path clip-path="url(#p32370aa0d6)" d="M 355.55625 28.83531 
L 358.781538 82.726704 
L 362.006827 67.158917 
L 365.232115 33.623735 
L 368.457404 29.427036 
L 371.682692 40.570215 
L 374.907981 47.772263 
L 378.133269 39.963523 
L 381.358558 40.135822 
L 384.583846 38.208491 
L 387.809135 40.747127 
L 391.034423 49.082283 
L 394.259712 62.052272 
L 397.485 55.270868 
L 400.710288 68.62723 
L 403.935577 71.253034 
L 407.160865 72.617081 
L 410.386154 107.548802 
L 413.611442 133.189807 
L 416.836731 118.397002 
L 420.062019 95.898871 
L 423.287308 102.645184 
L 426.512596 96.615392 
L 429.737885 112.011499 
L 432.963173 94.148489 
L 436.188462 85.056694 
L 439.41375 105.705515 
L 442.639038 126.15544 
L 445.864327 114.252679 
L 449.089615 89.158706 
L 452.314904 93.886273 
L 455.540192 120.026269 
L 458.765481 115.117327 
L 461.990769 106.740849 
L 465.216058 93.514524 
L 468.441346 106.920031 
L 471.666635 94.917066 
L 474.891923 103.188762 
L 478.117212 97.470506 
L 481.3425 115.418711 
L 484.567788 96.974107 
L 487.793077 117.793386 
L 491.018365 108.516578 
L 494.243654 118.007809 
L 497.468942 105.845308 
L 500.694231 107.672208 
L 503.919519 108.578008 
L 507.144808 159.613636 
L 510.370096 123.783008 
L 513.595385 115.827191 
L 516.820673 131.286302 
L 520.045962 113.246687 
L 523.27125 113.029693 
L 526.496538 128.503598 
L 529.721827 97.821623 
L 532.947115 116.757048 
L 536.172404 123.256947 
L 539.397692 113.106777 
L 542.622981 103.351695 
L 545.848269 69.58883 
L 549.073558 99.196263 
L 552.298846 104.158793 
L 555.524135 116.3629 
L 558.749423 108.231106 
L 561.974712 123.134703 
L 565.2 97.151076 
L 568.425288 107.271503 
L 571.650577 128.395179 
L 574.875865 121.075369 
L 577 116.412831 
" style="fill:none;stroke:#dd8452;stroke-linecap:round;stroke-width:3;"/>
   </g>
   <g id="patch_8">
    <path d="M 355.55625 166.7 
L 355.55625 10.8 
" style="fill:none;stroke:#262626;stroke-linecap:square;stroke-linejoin:miter;stroke-width:1.25;"/>
   </g>
   <g id="patch_9">
    <path d="M 565.2 166.7 
L 565.2 10.8 
" style="fill:none;stroke:#262626;stroke-linecap:square;stroke-linejoin:miter;stroke-width:1.25;"/>
   </g>
   <g id="patch_10">
    <path d="M 355.55625 166.7 
L 565.2 166.7 
" style="fill:none;stroke:#262626;stroke-linecap:square;stroke-linejoin:miter;stroke-width:1.25;"/>
   </g>
   <g id="patch_11">
    <path d="M 355.55625 10.8 
L 565.2 10.8 
" style="fill:none;stroke:#262626;stroke-linecap:square;stroke-linejoin:miter;stroke-width:1.25;"/>
   </g>
  </g>
 </g>
 <defs>
  <clipPath id="pd0b81e658c">
   <rect height="155.9" width="209.64375" x="62.55" y="10.8"/>
  </clipPath>
  <clipPath id="p32370aa0d6">
   <rect height="155.9" width="209.64375" x="355.55625" y="10.8"/>
  </clipPath>
 </defs>
</svg>
