<?xml version="1.0" encoding="utf-8" standalone="no"?>
<!DOCTYPE svg PUBLIC "-//W3C//DTD SVG 1.1//EN"
  "http://www.w3.org/Graphics/SVG/1.1/DTD/svg11.dtd">
<!-- Created with matplotlib (https://matplotlib.org/) -->
<svg height="216pt" version="1.1" viewBox="0 0 576 216" width="576pt" xmlns="http://www.w3.org/2000/svg" xmlns:xlink="http://www.w3.org/1999/xlink">
 <metadata>
  <rdf:RDF xmlns:cc="http://creativecommons.org/ns#" xmlns:dc="http://purl.org/dc/elements/1.1/" xmlns:rdf="http://www.w3.org/1999/02/22-rdf-syntax-ns#">
   <cc:Work>
    <dc:type rdf:resource="http://purl.org/dc/dcmitype/StillImage"/>
    <dc:date>2022-10-02T12:42:59.208898</dc:date>
    <dc:format>image/svg+xml</dc:format>
    <dc:creator>
     <cc:Agent>
      <dc:title>Matplotlib v3.3.4, https://matplotlib.org/</dc:title>
     </cc:Agent>
    </dc:creator>
   </cc:Work>
  </rdf:RDF>
 </metadata>
 <defs>
  <style type="text/css">*{stroke-linecap:butt;stroke-linejoin:round;}</style>
 </defs>
 <g id="figure_1">
  <g id="patch_1">
   <path d="M 0 216 
L 576 216 
L 576 0 
L 0 0 
z
" style="fill:none;"/>
  </g>
  <g id="axes_1">
   <g id="patch_2">
    <path d="M 79.8 157.7 
L 277.73416 157.7 
L 277.73416 10.8 
L 79.8 10.8 
z
" style="fill:#ffffff;"/>
   </g>
   <g id="matplotlib.axis_1">
    <g id="xtick_1">
     <g id="text_1">
      <!-- 0 -->
      <g style="fill:#262626;" transform="translate(75.028125 178.597656)scale(0.15 -0.15)">
       <defs>
        <path d="M 31.78125 66.40625 
Q 24.171875 66.40625 20.328125 58.90625 
Q 16.5 51.421875 16.5 36.375 
Q 16.5 21.390625 20.328125 13.890625 
Q 24.171875 6.390625 31.78125 6.390625 
Q 39.453125 6.390625 43.28125 13.890625 
Q 47.125 21.390625 47.125 36.375 
Q 47.125 51.421875 43.28125 58.90625 
Q 39.453125 66.40625 31.78125 66.40625 
z
M 31.78125 74.21875 
Q 44.046875 74.21875 50.515625 64.515625 
Q 56.984375 54.828125 56.984375 36.375 
Q 56.984375 17.96875 50.515625 8.265625 
Q 44.046875 -1.421875 31.78125 -1.421875 
Q 19.53125 -1.421875 13.0625 8.265625 
Q 6.59375 17.96875 6.59375 36.375 
Q 6.59375 54.828125 13.0625 64.515625 
Q 19.53125 74.21875 31.78125 74.21875 
z
" id="DejaVuSans-48"/>
       </defs>
       <use xlink:href="#DejaVuSans-48"/>
      </g>
     </g>
    </g>
    <g id="xtick_2">
     <g id="text_2">
      <!-- 50 -->
      <g style="fill:#262626;" transform="translate(108.000073 178.597656)scale(0.15 -0.15)">
       <defs>
        <path d="M 10.796875 72.90625 
L 49.515625 72.90625 
L 49.515625 64.59375 
L 19.828125 64.59375 
L 19.828125 46.734375 
Q 21.96875 47.46875 24.109375 47.828125 
Q 26.265625 48.1875 28.421875 48.1875 
Q 40.625 48.1875 47.75 41.5 
Q 54.890625 34.8125 54.890625 23.390625 
Q 54.890625 11.625 47.5625 5.09375 
Q 40.234375 -1.421875 26.90625 -1.421875 
Q 22.3125 -1.421875 17.546875 -0.640625 
Q 12.796875 0.140625 7.71875 1.703125 
L 7.71875 11.625 
Q 12.109375 9.234375 16.796875 8.0625 
Q 21.484375 6.890625 26.703125 6.890625 
Q 35.15625 6.890625 40.078125 11.328125 
Q 45.015625 15.765625 45.015625 23.390625 
Q 45.015625 31 40.078125 35.4375 
Q 35.15625 39.890625 26.703125 39.890625 
Q 22.75 39.890625 18.8125 39.015625 
Q 14.890625 38.140625 10.796875 36.28125 
z
" id="DejaVuSans-53"/>
       </defs>
       <use xlink:href="#DejaVuSans-53"/>
       <use x="63.623047" xlink:href="#DejaVuSans-48"/>
      </g>
     </g>
    </g>
    <g id="xtick_3">
     <g id="text_3">
      <!-- 100 -->
      <g style="fill:#262626;" transform="translate(140.97202 178.597656)scale(0.15 -0.15)">
       <defs>
        <path d="M 12.40625 8.296875 
L 28.515625 8.296875 
L 28.515625 63.921875 
L 10.984375 60.40625 
L 10.984375 69.390625 
L 28.421875 72.90625 
L 38.28125 72.90625 
L 38.28125 8.296875 
L 54.390625 8.296875 
L 54.390625 0 
L 12.40625 0 
z
" id="DejaVuSans-49"/>
       </defs>
       <use xlink:href="#DejaVuSans-49"/>
       <use x="63.623047" xlink:href="#DejaVuSans-48"/>
       <use x="127.246094" xlink:href="#DejaVuSans-48"/>
      </g>
     </g>
    </g>
    <g id="xtick_4">
     <g id="text_4">
      <!-- 150 -->
      <g style="fill:#262626;" transform="translate(178.715843 178.597656)scale(0.15 -0.15)">
       <use xlink:href="#DejaVuSans-49"/>
       <use x="63.623047" xlink:href="#DejaVuSans-53"/>
       <use x="127.246094" xlink:href="#DejaVuSans-48"/>
      </g>
     </g>
    </g>
    <g id="xtick_5">
     <g id="text_5">
      <!-- 200 -->
      <g style="fill:#262626;" transform="translate(216.459666 178.597656)scale(0.15 -0.15)">
       <defs>
        <path d="M 19.1875 8.296875 
L 53.609375 8.296875 
L 53.609375 0 
L 7.328125 0 
L 7.328125 8.296875 
Q 12.9375 14.109375 22.625 23.890625 
Q 32.328125 33.6875 34.8125 36.53125 
Q 39.546875 41.84375 41.421875 45.53125 
Q 43.3125 49.21875 43.3125 52.78125 
Q 43.3125 58.59375 39.234375 62.25 
Q 35.15625 65.921875 28.609375 65.921875 
Q 23.96875 65.921875 18.8125 64.3125 
Q 13.671875 62.703125 7.8125 59.421875 
L 7.8125 69.390625 
Q 13.765625 71.78125 18.9375 73 
Q 24.125 74.21875 28.421875 74.21875 
Q 39.75 74.21875 46.484375 68.546875 
Q 53.21875 62.890625 53.21875 53.421875 
Q 53.21875 48.921875 51.53125 44.890625 
Q 49.859375 40.875 45.40625 35.40625 
Q 44.1875 33.984375 37.640625 27.21875 
Q 31.109375 20.453125 19.1875 8.296875 
z
" id="DejaVuSans-50"/>
       </defs>
       <use xlink:href="#DejaVuSans-50"/>
       <use x="63.623047" xlink:href="#DejaVuSans-48"/>
       <use x="127.246094" xlink:href="#DejaVuSans-48"/>
      </g>
     </g>
    </g>
    <g id="xtick_6">
     <g id="text_6">
      <!-- 250 -->
      <g style="fill:#262626;" transform="translate(254.203488 178.597656)scale(0.15 -0.15)">
       <use xlink:href="#DejaVuSans-50"/>
       <use x="63.623047" xlink:href="#DejaVuSans-53"/>
       <use x="127.246094" xlink:href="#DejaVuSans-48"/>
      </g>
     </g>
    </g>
    <g id="text_7">
     <!-- Time (ms) -->
     <g style="fill:#262626;" transform="translate(128.368643 200.914062)scale(0.2 -0.2)">
      <defs>
       <path d="M -0.296875 72.90625 
L 61.375 72.90625 
L 61.375 64.59375 
L 35.5 64.59375 
L 35.5 0 
L 25.59375 0 
L 25.59375 64.59375 
L -0.296875 64.59375 
z
" id="DejaVuSans-84"/>
       <path d="M 9.421875 54.6875 
L 18.40625 54.6875 
L 18.40625 0 
L 9.421875 0 
z
M 9.421875 75.984375 
L 18.40625 75.984375 
L 18.40625 64.59375 
L 9.421875 64.59375 
z
" id="DejaVuSans-105"/>
       <path d="M 52 44.1875 
Q 55.375 50.25 60.0625 53.125 
Q 64.75 56 71.09375 56 
Q 79.640625 56 84.28125 50.015625 
Q 88.921875 44.046875 88.921875 33.015625 
L 88.921875 0 
L 79.890625 0 
L 79.890625 32.71875 
Q 79.890625 40.578125 77.09375 44.375 
Q 74.3125 48.1875 68.609375 48.1875 
Q 61.625 48.1875 57.5625 43.546875 
Q 53.515625 38.921875 53.515625 30.90625 
L 53.515625 0 
L 44.484375 0 
L 44.484375 32.71875 
Q 44.484375 40.625 41.703125 44.40625 
Q 38.921875 48.1875 33.109375 48.1875 
Q 26.21875 48.1875 22.15625 43.53125 
Q 18.109375 38.875 18.109375 30.90625 
L 18.109375 0 
L 9.078125 0 
L 9.078125 54.6875 
L 18.109375 54.6875 
L 18.109375 46.1875 
Q 21.1875 51.21875 25.484375 53.609375 
Q 29.78125 56 35.6875 56 
Q 41.65625 56 45.828125 52.96875 
Q 50 49.953125 52 44.1875 
z
" id="DejaVuSans-109"/>
       <path d="M 56.203125 29.59375 
L 56.203125 25.203125 
L 14.890625 25.203125 
Q 15.484375 15.921875 20.484375 11.0625 
Q 25.484375 6.203125 34.421875 6.203125 
Q 39.59375 6.203125 44.453125 7.46875 
Q 49.3125 8.734375 54.109375 11.28125 
L 54.109375 2.78125 
Q 49.265625 0.734375 44.1875 -0.34375 
Q 39.109375 -1.421875 33.890625 -1.421875 
Q 20.796875 -1.421875 13.15625 6.1875 
Q 5.515625 13.8125 5.515625 26.8125 
Q 5.515625 40.234375 12.765625 48.109375 
Q 20.015625 56 32.328125 56 
Q 43.359375 56 49.78125 48.890625 
Q 56.203125 41.796875 56.203125 29.59375 
z
M 47.21875 32.234375 
Q 47.125 39.59375 43.09375 43.984375 
Q 39.0625 48.390625 32.421875 48.390625 
Q 24.90625 48.390625 20.390625 44.140625 
Q 15.875 39.890625 15.1875 32.171875 
z
" id="DejaVuSans-101"/>
       <path id="DejaVuSans-32"/>
       <path d="M 31 75.875 
Q 24.46875 64.65625 21.28125 53.65625 
Q 18.109375 42.671875 18.109375 31.390625 
Q 18.109375 20.125 21.3125 9.0625 
Q 24.515625 -2 31 -13.1875 
L 23.1875 -13.1875 
Q 15.875 -1.703125 12.234375 9.375 
Q 8.59375 20.453125 8.59375 31.390625 
Q 8.59375 42.28125 12.203125 53.3125 
Q 15.828125 64.359375 23.1875 75.875 
z
" id="DejaVuSans-40"/>
       <path d="M 44.28125 53.078125 
L 44.28125 44.578125 
Q 40.484375 46.53125 36.375 47.5 
Q 32.28125 48.484375 27.875 48.484375 
Q 21.1875 48.484375 17.84375 46.4375 
Q 14.5 44.390625 14.5 40.28125 
Q 14.5 37.15625 16.890625 35.375 
Q 19.28125 33.59375 26.515625 31.984375 
L 29.59375 31.296875 
Q 39.15625 29.25 43.1875 25.515625 
Q 47.21875 21.78125 47.21875 15.09375 
Q 47.21875 7.46875 41.1875 3.015625 
Q 35.15625 -1.421875 24.609375 -1.421875 
Q 20.21875 -1.421875 15.453125 -0.5625 
Q 10.6875 0.296875 5.421875 2 
L 5.421875 11.28125 
Q 10.40625 8.6875 15.234375 7.390625 
Q 20.0625 6.109375 24.8125 6.109375 
Q 31.15625 6.109375 34.5625 8.28125 
Q 37.984375 10.453125 37.984375 14.40625 
Q 37.984375 18.0625 35.515625 20.015625 
Q 33.0625 21.96875 24.703125 23.78125 
L 21.578125 24.515625 
Q 13.234375 26.265625 9.515625 29.90625 
Q 5.8125 33.546875 5.8125 39.890625 
Q 5.8125 47.609375 11.28125 51.796875 
Q 16.75 56 26.8125 56 
Q 31.78125 56 36.171875 55.265625 
Q 40.578125 54.546875 44.28125 53.078125 
z
" id="DejaVuSans-115"/>
       <path d="M 8.015625 75.875 
L 15.828125 75.875 
Q 23.140625 64.359375 26.78125 53.3125 
Q 30.421875 42.28125 30.421875 31.390625 
Q 30.421875 20.453125 26.78125 9.375 
Q 23.140625 -1.703125 15.828125 -13.1875 
L 8.015625 -13.1875 
Q 14.5 -2 17.703125 9.0625 
Q 20.90625 20.125 20.90625 31.390625 
Q 20.90625 42.671875 17.703125 53.65625 
Q 14.5 64.65625 8.015625 75.875 
z
" id="DejaVuSans-41"/>
      </defs>
      <use xlink:href="#DejaVuSans-84"/>
      <use x="57.958984" xlink:href="#DejaVuSans-105"/>
      <use x="85.742188" xlink:href="#DejaVuSans-109"/>
      <use x="183.154297" xlink:href="#DejaVuSans-101"/>
      <use x="244.677734" xlink:href="#DejaVuSans-32"/>
      <use x="276.464844" xlink:href="#DejaVuSans-40"/>
      <use x="315.478516" xlink:href="#DejaVuSans-109"/>
      <use x="412.890625" xlink:href="#DejaVuSans-115"/>
      <use x="464.990234" xlink:href="#DejaVuSans-41"/>
     </g>
    </g>
   </g>
   <g id="matplotlib.axis_2">
    <g id="ytick_1">
     <g id="text_8">
      <!-- −0.4 -->
      <g style="fill:#262626;" transform="translate(33.875781 136.795141)scale(0.15 -0.15)">
       <defs>
        <path d="M 10.59375 35.5 
L 73.1875 35.5 
L 73.1875 27.203125 
L 10.59375 27.203125 
z
" id="DejaVuSans-8722"/>
        <path d="M 10.6875 12.40625 
L 21 12.40625 
L 21 0 
L 10.6875 0 
z
" id="DejaVuSans-46"/>
        <path d="M 37.796875 64.3125 
L 12.890625 25.390625 
L 37.796875 25.390625 
z
M 35.203125 72.90625 
L 47.609375 72.90625 
L 47.609375 25.390625 
L 58.015625 25.390625 
L 58.015625 17.1875 
L 47.609375 17.1875 
L 47.609375 0 
L 37.796875 0 
L 37.796875 17.1875 
L 4.890625 17.1875 
L 4.890625 26.703125 
z
" id="DejaVuSans-52"/>
       </defs>
       <use xlink:href="#DejaVuSans-8722"/>
       <use x="83.789062" xlink:href="#DejaVuSans-48"/>
       <use x="147.412109" xlink:href="#DejaVuSans-46"/>
       <use x="179.199219" xlink:href="#DejaVuSans-52"/>
      </g>
     </g>
    </g>
    <g id="ytick_2">
     <g id="text_9">
      <!-- −0.2 -->
      <g style="fill:#262626;" transform="translate(33.875781 105.967356)scale(0.15 -0.15)">
       <use xlink:href="#DejaVuSans-8722"/>
       <use x="83.789062" xlink:href="#DejaVuSans-48"/>
       <use x="147.412109" xlink:href="#DejaVuSans-46"/>
       <use x="179.199219" xlink:href="#DejaVuSans-50"/>
      </g>
     </g>
    </g>
    <g id="ytick_3">
     <g id="text_10">
      <!-- 0.0 -->
      <g style="fill:#262626;" transform="translate(46.445313 75.139572)scale(0.15 -0.15)">
       <use xlink:href="#DejaVuSans-48"/>
       <use x="63.623047" xlink:href="#DejaVuSans-46"/>
       <use x="95.410156" xlink:href="#DejaVuSans-48"/>
      </g>
     </g>
    </g>
    <g id="ytick_4">
     <g id="text_11">
      <!-- 0.2 -->
      <g style="fill:#262626;" transform="translate(46.445313 44.311787)scale(0.15 -0.15)">
       <use xlink:href="#DejaVuSans-48"/>
       <use x="63.623047" xlink:href="#DejaVuSans-46"/>
       <use x="95.410156" xlink:href="#DejaVuSans-50"/>
      </g>
     </g>
    </g>
    <g id="text_12">
     <!-- Voltage (mV) -->
     <g style="fill:#262626;" transform="translate(25.716406 149.325)rotate(-90)scale(0.2 -0.2)">
      <defs>
       <path d="M 28.609375 0 
L 0.78125 72.90625 
L 11.078125 72.90625 
L 34.1875 11.53125 
L 57.328125 72.90625 
L 67.578125 72.90625 
L 39.796875 0 
z
" id="DejaVuSans-86"/>
       <path d="M 30.609375 48.390625 
Q 23.390625 48.390625 19.1875 42.75 
Q 14.984375 37.109375 14.984375 27.296875 
Q 14.984375 17.484375 19.15625 11.84375 
Q 23.34375 6.203125 30.609375 6.203125 
Q 37.796875 6.203125 41.984375 11.859375 
Q 46.1875 17.53125 46.1875 27.296875 
Q 46.1875 37.015625 41.984375 42.703125 
Q 37.796875 48.390625 30.609375 48.390625 
z
M 30.609375 56 
Q 42.328125 56 49.015625 48.375 
Q 55.71875 40.765625 55.71875 27.296875 
Q 55.71875 13.875 49.015625 6.21875 
Q 42.328125 -1.421875 30.609375 -1.421875 
Q 18.84375 -1.421875 12.171875 6.21875 
Q 5.515625 13.875 5.515625 27.296875 
Q 5.515625 40.765625 12.171875 48.375 
Q 18.84375 56 30.609375 56 
z
" id="DejaVuSans-111"/>
       <path d="M 9.421875 75.984375 
L 18.40625 75.984375 
L 18.40625 0 
L 9.421875 0 
z
" id="DejaVuSans-108"/>
       <path d="M 18.3125 70.21875 
L 18.3125 54.6875 
L 36.8125 54.6875 
L 36.8125 47.703125 
L 18.3125 47.703125 
L 18.3125 18.015625 
Q 18.3125 11.328125 20.140625 9.421875 
Q 21.96875 7.515625 27.59375 7.515625 
L 36.8125 7.515625 
L 36.8125 0 
L 27.59375 0 
Q 17.1875 0 13.234375 3.875 
Q 9.28125 7.765625 9.28125 18.015625 
L 9.28125 47.703125 
L 2.6875 47.703125 
L 2.6875 54.6875 
L 9.28125 54.6875 
L 9.28125 70.21875 
z
" id="DejaVuSans-116"/>
       <path d="M 34.28125 27.484375 
Q 23.390625 27.484375 19.1875 25 
Q 14.984375 22.515625 14.984375 16.5 
Q 14.984375 11.71875 18.140625 8.90625 
Q 21.296875 6.109375 26.703125 6.109375 
Q 34.1875 6.109375 38.703125 11.40625 
Q 43.21875 16.703125 43.21875 25.484375 
L 43.21875 27.484375 
z
M 52.203125 31.203125 
L 52.203125 0 
L 43.21875 0 
L 43.21875 8.296875 
Q 40.140625 3.328125 35.546875 0.953125 
Q 30.953125 -1.421875 24.3125 -1.421875 
Q 15.921875 -1.421875 10.953125 3.296875 
Q 6 8.015625 6 15.921875 
Q 6 25.140625 12.171875 29.828125 
Q 18.359375 34.515625 30.609375 34.515625 
L 43.21875 34.515625 
L 43.21875 35.40625 
Q 43.21875 41.609375 39.140625 45 
Q 35.0625 48.390625 27.6875 48.390625 
Q 23 48.390625 18.546875 47.265625 
Q 14.109375 46.140625 10.015625 43.890625 
L 10.015625 52.203125 
Q 14.9375 54.109375 19.578125 55.046875 
Q 24.21875 56 28.609375 56 
Q 40.484375 56 46.34375 49.84375 
Q 52.203125 43.703125 52.203125 31.203125 
z
" id="DejaVuSans-97"/>
       <path d="M 45.40625 27.984375 
Q 45.40625 37.75 41.375 43.109375 
Q 37.359375 48.484375 30.078125 48.484375 
Q 22.859375 48.484375 18.828125 43.109375 
Q 14.796875 37.75 14.796875 27.984375 
Q 14.796875 18.265625 18.828125 12.890625 
Q 22.859375 7.515625 30.078125 7.515625 
Q 37.359375 7.515625 41.375 12.890625 
Q 45.40625 18.265625 45.40625 27.984375 
z
M 54.390625 6.78125 
Q 54.390625 -7.171875 48.1875 -13.984375 
Q 42 -20.796875 29.203125 -20.796875 
Q 24.46875 -20.796875 20.265625 -20.09375 
Q 16.0625 -19.390625 12.109375 -17.921875 
L 12.109375 -9.1875 
Q 16.0625 -11.328125 19.921875 -12.34375 
Q 23.78125 -13.375 27.78125 -13.375 
Q 36.625 -13.375 41.015625 -8.765625 
Q 45.40625 -4.15625 45.40625 5.171875 
L 45.40625 9.625 
Q 42.625 4.78125 38.28125 2.390625 
Q 33.9375 0 27.875 0 
Q 17.828125 0 11.671875 7.65625 
Q 5.515625 15.328125 5.515625 27.984375 
Q 5.515625 40.671875 11.671875 48.328125 
Q 17.828125 56 27.875 56 
Q 33.9375 56 38.28125 53.609375 
Q 42.625 51.21875 45.40625 46.390625 
L 45.40625 54.6875 
L 54.390625 54.6875 
z
" id="DejaVuSans-103"/>
      </defs>
      <use xlink:href="#DejaVuSans-86"/>
      <use x="60.658203" xlink:href="#DejaVuSans-111"/>
      <use x="121.839844" xlink:href="#DejaVuSans-108"/>
      <use x="149.623047" xlink:href="#DejaVuSans-116"/>
      <use x="188.832031" xlink:href="#DejaVuSans-97"/>
      <use x="250.111328" xlink:href="#DejaVuSans-103"/>
      <use x="313.587891" xlink:href="#DejaVuSans-101"/>
      <use x="375.111328" xlink:href="#DejaVuSans-32"/>
      <use x="406.898438" xlink:href="#DejaVuSans-40"/>
      <use x="445.912109" xlink:href="#DejaVuSans-109"/>
      <use x="543.324219" xlink:href="#DejaVuSans-86"/>
      <use x="611.732422" xlink:href="#DejaVuSans-41"/>
     </g>
    </g>
   </g>
   <g id="line2d_1">
    <path clip-path="url(#p62c70d52d0)" d="M 13.527402 69.440743 
L 145.630781 69.440743 
L 146.072598 70.876332 
L 147.39805 77.386049 
L 148.723502 82.454009 
L 150.048954 86.399528 
L 151.374406 89.471203 
L 152.699858 91.862571 
L 154.02531 93.724303 
L 155.350762 95.173704 
L 156.676214 96.302095 
L 158.001666 97.180572 
L 159.768935 98.056966 
L 161.536205 98.684631 
L 163.303474 99.134158 
L 163.745291 97.649564 
L 165.070743 91.401939 
L 166.396195 86.538024 
L 167.721647 82.751357 
L 169.047099 79.803353 
L 170.372551 77.508266 
L 171.698003 75.72149 
L 173.023455 74.330444 
L 174.348907 73.247485 
L 175.674359 72.404376 
L 177.441628 71.563267 
L 179.208898 70.960873 
L 181.417984 70.442277 
L 184.068888 70.04777 
L 187.603427 69.752104 
L 192.905235 69.555123 
L 202.625216 69.458982 
L 241.50514 69.440755 
L 277.73416 69.440743 
L 277.73416 69.440743 
" style="fill:none;stroke:#4c72b0;stroke-linecap:round;stroke-width:3;"/>
   </g>
   <g id="line2d_2">
    <path clip-path="url(#p62c70d52d0)" d="M 13.527402 69.440743 
L 145.630781 69.440743 
L 146.072598 66.928457 
L 147.39805 55.536455 
L 148.723502 46.667528 
L 150.048954 39.76287 
L 151.374406 34.38744 
L 152.699858 30.202548 
L 154.02531 26.944516 
L 155.350762 24.408066 
L 156.676214 22.433383 
L 158.001666 20.896048 
L 159.327118 19.699199 
L 160.65257 18.767425 
L 162.419839 17.83786 
L 163.303474 17.477273 
L 163.745291 20.075308 
L 165.070743 31.008651 
L 166.396195 39.520503 
L 167.721647 46.147169 
L 169.047099 51.306177 
L 170.372551 55.322579 
L 171.698003 58.449438 
L 173.023455 60.883767 
L 174.348907 62.778946 
L 175.674359 64.254386 
L 176.999811 65.403049 
L 178.325263 66.297308 
L 178.76708 66.548988 
L 179.208898 71.447876 
L 180.53435 89.779426 
L 181.859801 104.050946 
L 183.185253 115.161643 
L 184.510705 123.811568 
L 185.836157 130.545727 
L 187.161609 135.78842 
L 188.487061 139.869974 
L 189.812513 143.047554 
L 191.137965 145.521372 
L 192.463417 147.447293 
L 193.788869 148.946666 
L 195.114321 150.113962 
L 196.439773 151.022727 
L 196.88159 146.230019 
L 198.207042 129.222906 
L 199.532494 115.98249 
L 200.857946 105.67453 
L 202.183398 97.649554 
L 203.50885 91.401931 
L 204.834302 86.538018 
L 206.159754 82.751353 
L 207.485206 79.803349 
L 208.810658 77.508263 
L 210.13611 75.721487 
L 211.461562 74.330443 
L 212.787014 73.247483 
L 214.112466 72.404375 
L 215.879735 71.563266 
L 217.647005 70.960872 
L 219.856091 70.442277 
L 222.506995 70.04777 
L 226.041534 69.752104 
L 231.343342 69.555123 
L 241.063323 69.458982 
L 277.73416 69.440761 
L 277.73416 69.440761 
" style="fill:none;stroke:#dd8452;stroke-linecap:round;stroke-width:3;"/>
   </g>
   <g id="patch_3">
    <path d="M 79.8 157.7 
L 79.8 10.8 
" style="fill:none;stroke:#262626;stroke-linecap:square;stroke-linejoin:miter;stroke-width:1.25;"/>
   </g>
   <g id="patch_4">
    <path d="M 277.73416 157.7 
L 277.73416 10.8 
" style="fill:none;stroke:#262626;stroke-linecap:square;stroke-linejoin:miter;stroke-width:1.25;"/>
   </g>
   <g id="patch_5">
    <path d="M 79.8 157.7 
L 277.73416 157.7 
" style="fill:none;stroke:#262626;stroke-linecap:square;stroke-linejoin:miter;stroke-width:1.25;"/>
   </g>
   <g id="patch_6">
    <path d="M 79.8 10.8 
L 277.73416 10.8 
" style="fill:none;stroke:#262626;stroke-linecap:square;stroke-linejoin:miter;stroke-width:1.25;"/>
   </g>
   <g id="PathCollection_1">
    <defs>
     <path d="M 0 3.872983 
C 1.027127 3.872983 2.012324 3.464901 2.738613 2.738613 
C 3.464901 2.012324 3.872983 1.027127 3.872983 0 
C 3.872983 -1.027127 3.464901 -2.012324 2.738613 -2.738613 
C 2.012324 -3.464901 1.027127 -3.872983 0 -3.872983 
C -1.027127 -3.872983 -2.012324 -3.464901 -2.738613 -2.738613 
C -3.464901 -2.012324 -3.872983 -1.027127 -3.872983 0 
C -3.872983 1.027127 -3.464901 2.012324 -2.738613 2.738613 
C -2.012324 3.464901 -1.027127 3.872983 0 3.872983 
z
" id="m7c8eb90fd8" style="stroke:#1a1a1a;"/>
    </defs>
    <g clip-path="url(#p62c70d52d0)">
     <use style="fill:#1a1a1a;stroke:#1a1a1a;" x="163.303474" xlink:href="#m7c8eb90fd8" y="17.477273"/>
    </g>
   </g>
   <g id="PathCollection_2">
    <g clip-path="url(#p62c70d52d0)">
     <use style="fill:#1a1a1a;stroke:#1a1a1a;" x="196.439773" xlink:href="#m7c8eb90fd8" y="151.022727"/>
    </g>
   </g>
  </g>
  <g id="axes_2">
   <g id="patch_7">
    <path d="M 362.4 157.7 
L 560.33416 157.7 
L 560.33416 10.8 
L 362.4 10.8 
z
" style="fill:#ffffff;"/>
   </g>
   <g id="matplotlib.axis_3">
    <g id="xtick_7">
     <g id="text_13">
      <!-- 0 -->
      <g style="fill:#262626;" transform="translate(357.628125 178.597656)scale(0.15 -0.15)">
       <use xlink:href="#DejaVuSans-48"/>
      </g>
     </g>
    </g>
    <g id="xtick_8">
     <g id="text_14">
      <!-- 50 -->
      <g style="fill:#262626;" transform="translate(390.600073 178.597656)scale(0.15 -0.15)">
       <use xlink:href="#DejaVuSans-53"/>
       <use x="63.623047" xlink:href="#DejaVuSans-48"/>
      </g>
     </g>
    </g>
    <g id="xtick_9">
     <g id="text_15">
      <!-- 100 -->
      <g style="fill:#262626;" transform="translate(423.57202 178.597656)scale(0.15 -0.15)">
       <use xlink:href="#DejaVuSans-49"/>
       <use x="63.623047" xlink:href="#DejaVuSans-48"/>
       <use x="127.246094" xlink:href="#DejaVuSans-48"/>
      </g>
     </g>
    </g>
    <g id="xtick_10">
     <g id="text_16">
      <!-- 150 -->
      <g style="fill:#262626;" transform="translate(461.315843 178.597656)scale(0.15 -0.15)">
       <use xlink:href="#DejaVuSans-49"/>
       <use x="63.623047" xlink:href="#DejaVuSans-53"/>
       <use x="127.246094" xlink:href="#DejaVuSans-48"/>
      </g>
     </g>
    </g>
    <g id="xtick_11">
     <g id="text_17">
      <!-- 200 -->
      <g style="fill:#262626;" transform="translate(499.059666 178.597656)scale(0.15 -0.15)">
       <use xlink:href="#DejaVuSans-50"/>
       <use x="63.623047" xlink:href="#DejaVuSans-48"/>
       <use x="127.246094" xlink:href="#DejaVuSans-48"/>
      </g>
     </g>
    </g>
    <g id="xtick_12">
     <g id="text_18">
      <!-- 250 -->
      <g style="fill:#262626;" transform="translate(536.803488 178.597656)scale(0.15 -0.15)">
       <use xlink:href="#DejaVuSans-50"/>
       <use x="63.623047" xlink:href="#DejaVuSans-53"/>
       <use x="127.246094" xlink:href="#DejaVuSans-48"/>
      </g>
     </g>
    </g>
    <g id="text_19">
     <!-- Time (ms) -->
     <g style="fill:#262626;" transform="translate(410.968643 200.914062)scale(0.2 -0.2)">
      <use xlink:href="#DejaVuSans-84"/>
      <use x="57.958984" xlink:href="#DejaVuSans-105"/>
      <use x="85.742188" xlink:href="#DejaVuSans-109"/>
      <use x="183.154297" xlink:href="#DejaVuSans-101"/>
      <use x="244.677734" xlink:href="#DejaVuSans-32"/>
      <use x="276.464844" xlink:href="#DejaVuSans-40"/>
      <use x="315.478516" xlink:href="#DejaVuSans-109"/>
      <use x="412.890625" xlink:href="#DejaVuSans-115"/>
      <use x="464.990234" xlink:href="#DejaVuSans-41"/>
     </g>
    </g>
   </g>
   <g id="matplotlib.axis_4">
    <g id="ytick_5">
     <g id="text_20">
      <!-- −0.4 -->
      <g style="fill:#262626;" transform="translate(316.475781 136.35798)scale(0.15 -0.15)">
       <use xlink:href="#DejaVuSans-8722"/>
       <use x="83.789062" xlink:href="#DejaVuSans-48"/>
       <use x="147.412109" xlink:href="#DejaVuSans-46"/>
       <use x="179.199219" xlink:href="#DejaVuSans-52"/>
      </g>
     </g>
    </g>
    <g id="ytick_6">
     <g id="text_21">
      <!-- −0.2 -->
      <g style="fill:#262626;" transform="translate(316.475781 105.79793)scale(0.15 -0.15)">
       <use xlink:href="#DejaVuSans-8722"/>
       <use x="83.789062" xlink:href="#DejaVuSans-48"/>
       <use x="147.412109" xlink:href="#DejaVuSans-46"/>
       <use x="179.199219" xlink:href="#DejaVuSans-50"/>
      </g>
     </g>
    </g>
    <g id="ytick_7">
     <g id="text_22">
      <!-- 0.0 -->
      <g style="fill:#262626;" transform="translate(329.045312 75.23788)scale(0.15 -0.15)">
       <use xlink:href="#DejaVuSans-48"/>
       <use x="63.623047" xlink:href="#DejaVuSans-46"/>
       <use x="95.410156" xlink:href="#DejaVuSans-48"/>
      </g>
     </g>
    </g>
    <g id="ytick_8">
     <g id="text_23">
      <!-- 0.2 -->
      <g style="fill:#262626;" transform="translate(329.045312 44.67783)scale(0.15 -0.15)">
       <use xlink:href="#DejaVuSans-48"/>
       <use x="63.623047" xlink:href="#DejaVuSans-46"/>
       <use x="95.410156" xlink:href="#DejaVuSans-50"/>
      </g>
     </g>
    </g>
    <g id="text_24">
     <!-- Voltage (mV) -->
     <g style="fill:#262626;" transform="translate(308.316406 149.325)rotate(-90)scale(0.2 -0.2)">
      <use xlink:href="#DejaVuSans-86"/>
      <use x="60.658203" xlink:href="#DejaVuSans-111"/>
      <use x="121.839844" xlink:href="#DejaVuSans-108"/>
      <use x="149.623047" xlink:href="#DejaVuSans-116"/>
      <use x="188.832031" xlink:href="#DejaVuSans-97"/>
      <use x="250.111328" xlink:href="#DejaVuSans-103"/>
      <use x="313.587891" xlink:href="#DejaVuSans-101"/>
      <use x="375.111328" xlink:href="#DejaVuSans-32"/>
      <use x="406.898438" xlink:href="#DejaVuSans-40"/>
      <use x="445.912109" xlink:href="#DejaVuSans-109"/>
      <use x="543.324219" xlink:href="#DejaVuSans-86"/>
      <use x="611.732422" xlink:href="#DejaVuSans-41"/>
     </g>
    </g>
   </g>
   <g id="line2d_3">
    <path clip-path="url(#pbad4922ad6)" d="M 296.127402 69.414861 
L 300.103758 69.637372 
L 300.545575 69.422748 
L 300.987392 69.585007 
L 301.871027 69.586366 
L 302.312844 69.695778 
L 303.196479 69.483803 
L 303.638296 69.666228 
L 304.521931 69.52993 
L 305.847383 69.472904 
L 318.218268 69.540527 
L 318.660085 69.454426 
L 320.869172 69.60069 
L 322.636441 69.444196 
L 323.078258 69.583628 
L 323.520076 69.387605 
L 323.961893 69.578263 
L 324.40371 69.328721 
L 324.845528 69.570382 
L 325.287345 69.638696 
L 325.729162 69.361039 
L 326.17098 69.493994 
L 331.914605 69.614518 
L 332.798239 69.340502 
L 333.240057 69.551201 
L 334.123691 69.372225 
L 335.007326 69.531184 
L 335.890961 69.470528 
L 336.332778 69.529263 
L 336.774595 69.457453 
L 337.65823 69.505682 
L 338.100047 69.421652 
L 338.541865 69.53572 
L 338.983682 69.455041 
L 339.425499 69.637147 
L 339.867317 69.511731 
L 341.192769 69.677769 
L 341.634586 69.460254 
L 342.076403 69.566737 
L 342.51822 69.429977 
L 342.960038 69.567378 
L 344.727307 69.589994 
L 345.169124 69.372836 
L 345.610942 69.5683 
L 346.494576 69.601772 
L 346.936394 69.428608 
L 347.378211 69.578043 
L 347.820028 69.442486 
L 348.261846 69.532807 
L 348.703663 69.336033 
L 349.14548 69.536298 
L 350.029115 69.539815 
L 350.470932 69.630127 
L 350.91275 69.437867 
L 353.563654 69.535476 
L 354.005471 69.39239 
L 355.77274 69.651332 
L 356.656375 69.477998 
L 357.098192 69.497824 
L 357.540009 69.690561 
L 357.981827 69.559939 
L 358.423644 69.66687 
L 359.307279 69.596111 
L 359.749096 69.592334 
L 360.190913 69.453324 
L 361.516365 69.431468 
L 361.958183 69.561329 
L 362.4 69.546468 
L 362.841817 69.391196 
L 363.725452 69.494276 
L 364.609087 69.444487 
L 365.050904 69.398581 
L 365.934539 69.620011 
L 366.376356 69.456431 
L 367.259991 69.673255 
L 367.701808 69.528112 
L 368.585443 69.402836 
L 369.02726 69.659652 
L 369.910894 69.458775 
L 371.236346 69.553886 
L 372.119981 69.594871 
L 372.561798 69.766566 
L 373.003616 69.551762 
L 373.88725 69.556158 
L 374.329068 69.444824 
L 374.770885 69.546247 
L 376.538154 69.401697 
L 376.979972 69.612114 
L 377.421789 69.510664 
L 377.863606 69.581462 
L 378.305424 69.423967 
L 379.189058 69.469489 
L 380.072693 69.446361 
L 380.51451 69.636258 
L 381.398145 69.515275 
L 381.839962 69.681096 
L 382.723597 69.630764 
L 384.049049 69.645637 
L 384.490866 69.451782 
L 384.932683 69.591767 
L 385.374501 69.440511 
L 385.816318 69.432292 
L 386.258135 69.645375 
L 387.14177 69.427976 
L 387.583587 69.705687 
L 388.025405 69.570348 
L 388.909039 69.539735 
L 389.350857 69.457764 
L 389.792674 69.512073 
L 390.234491 69.338679 
L 390.676309 69.595164 
L 391.559943 69.511912 
L 392.443578 69.449426 
L 393.327213 69.445874 
L 393.76903 69.677714 
L 395.978117 69.553204 
L 396.861751 69.391156 
L 400.39629 69.539383 
L 400.838107 69.763035 
L 401.279924 69.550722 
L 401.721742 69.766933 
L 403.489011 69.683251 
L 403.930828 69.581613 
L 404.372646 69.604107 
L 404.814463 69.466649 
L 405.25628 69.621783 
L 405.698098 69.376506 
L 406.139915 69.295903 
L 406.581732 69.393357 
L 407.02355 69.244264 
L 407.907184 69.431044 
L 408.349002 69.592749 
L 408.790819 69.497967 
L 409.232636 69.62512 
L 409.674454 69.558917 
L 410.116271 69.735443 
L 412.325357 69.650109 
L 412.767175 69.446565 
L 413.650809 69.394752 
L 414.976261 69.395892 
L 415.418079 69.404512 
L 415.859896 69.549992 
L 416.301713 69.483654 
L 418.5108 69.623107 
L 418.952617 69.482362 
L 419.394435 69.732532 
L 419.836252 69.535955 
L 420.278069 69.665642 
L 421.161704 69.479817 
L 421.603521 69.595705 
L 422.045339 69.511962 
L 422.487156 69.652005 
L 424.254425 69.600071 
L 424.696242 69.358373 
L 425.13806 69.404245 
L 426.021694 69.137123 
L 426.905329 69.121282 
L 427.347146 69.625057 
L 427.788964 69.827711 
L 428.230781 70.425525 
L 428.672598 71.505546 
L 429.556233 75.254247 
L 431.76532 83.652261 
L 432.648954 86.450349 
L 433.090772 87.747045 
L 434.416224 90.454254 
L 436.62531 93.616681 
L 437.067128 93.981731 
L 437.508945 94.674084 
L 437.950762 95.149528 
L 438.834397 95.713883 
L 439.276214 96.194635 
L 439.718031 96.242372 
L 440.159849 96.648947 
L 441.927118 97.5817 
L 442.368935 98.027081 
L 442.810753 98.293485 
L 443.25257 98.405293 
L 443.694387 98.778241 
L 444.136205 98.833883 
L 444.578022 99.110699 
L 445.461657 98.617919 
L 445.903474 98.076652 
L 446.345291 96.830945 
L 449.87983 83.872583 
L 450.763465 81.527988 
L 451.205282 80.548401 
L 451.647099 79.904396 
L 452.088916 78.882544 
L 452.972551 77.661448 
L 453.414368 76.85877 
L 456.065272 73.80777 
L 457.832542 72.690295 
L 458.274359 72.508538 
L 458.716176 72.504635 
L 460.041628 71.789178 
L 460.483446 71.900781 
L 460.925263 71.321828 
L 462.250715 70.7758 
L 462.692532 70.454148 
L 463.13435 70.496736 
L 463.576167 70.207863 
L 464.459801 70.36169 
L 465.785253 70.358913 
L 466.227071 70.576178 
L 467.110705 70.31183 
L 467.99434 70.135883 
L 468.436157 70.236971 
L 469.761609 69.685057 
L 471.087061 69.593005 
L 471.528879 69.448071 
L 471.970696 69.465731 
L 472.854331 69.711136 
L 473.737965 69.736342 
L 474.179783 69.951809 
L 475.063417 69.949233 
L 475.505235 69.755249 
L 475.947052 69.79158 
L 478.156138 69.387618 
L 478.597956 69.572381 
L 479.039773 69.327648 
L 480.365225 69.600905 
L 482.132494 69.621762 
L 483.016129 69.856236 
L 483.899764 69.657886 
L 484.783398 69.428241 
L 486.10885 69.451862 
L 487.434302 69.563399 
L 488.317937 69.603558 
L 488.759754 69.694312 
L 490.085206 69.547001 
L 490.968841 69.633666 
L 491.410658 69.388592 
L 492.294293 69.518366 
L 492.73611 69.345654 
L 493.619745 69.441015 
L 494.061562 69.442737 
L 494.503379 69.668239 
L 495.387014 69.614166 
L 495.828831 69.467657 
L 496.270649 69.678975 
L 496.712466 69.551973 
L 498.037918 69.55664 
L 498.479735 69.668346 
L 499.36337 69.549869 
L 500.688822 69.384801 
L 501.130639 69.44486 
L 501.572457 69.623851 
L 502.014274 69.402587 
L 502.456091 69.565086 
L 503.781543 69.523604 
L 504.223361 69.733377 
L 504.665178 69.531857 
L 505.106995 69.587759 
L 505.99063 69.537416 
L 506.874264 69.645291 
L 507.316082 69.469158 
L 509.966986 69.517905 
L 510.408803 69.425393 
L 511.292438 69.60167 
L 511.734255 69.449357 
L 512.176072 69.438243 
L 512.61789 69.66858 
L 513.059707 69.530015 
L 513.501524 69.553902 
L 514.385159 69.441734 
L 514.826976 69.570139 
L 517.036063 69.47585 
L 517.47788 69.600025 
L 517.919698 69.543676 
L 518.361515 69.708628 
L 518.803332 69.459296 
L 520.128784 69.61638 
L 521.012419 69.572477 
L 521.454236 69.339232 
L 521.896053 69.5414 
L 522.337871 69.568009 
L 522.779688 69.449161 
L 523.221505 69.621313 
L 523.663323 69.479699 
L 525.872409 69.46402 
L 526.314227 69.673282 
L 526.756044 69.705108 
L 527.197861 69.560862 
L 529.406948 69.529555 
L 530.7324 69.357005 
L 532.941486 69.576917 
L 534.266938 69.469639 
L 536.917842 69.505113 
L 537.801477 69.434633 
L 538.243294 69.647103 
L 539.568746 69.486128 
L 540.452381 69.575516 
L 541.777833 69.519417 
L 542.21965 69.508293 
L 542.661468 69.744627 
L 543.103285 69.498383 
L 544.870554 69.492412 
L 547.079641 69.541356 
L 547.521458 69.324954 
L 548.405093 69.621598 
L 551.939631 69.416611 
L 552.823266 69.647249 
L 553.265083 69.651994 
L 553.706901 69.489771 
L 554.590535 69.679255 
L 555.032353 69.469694 
L 555.915987 69.528406 
L 556.357805 69.334441 
L 556.799622 69.632521 
L 557.241439 69.476318 
L 558.566891 69.655424 
L 559.008709 69.390424 
L 560.33416 69.418129 
L 560.33416 69.418129 
" style="fill:none;stroke:#4c72b0;stroke-linecap:round;stroke-width:3;"/>
   </g>
   <g id="line2d_4">
    <path clip-path="url(#pbad4922ad6)" d="M 296.127402 69.485897 
L 296.569219 69.562401 
L 297.011036 69.791903 
L 299.220123 69.28653 
L 300.103758 69.674138 
L 300.987392 69.34094 
L 301.429209 69.416378 
L 302.312844 69.942361 
L 302.754661 69.595683 
L 303.196479 69.021748 
L 303.638296 69.250271 
L 304.080113 69.644439 
L 304.963748 69.674386 
L 305.405565 69.471486 
L 305.847383 69.658085 
L 307.614652 69.514512 
L 308.056469 69.560596 
L 308.498287 69.430117 
L 308.940104 69.459605 
L 309.823739 69.759995 
L 310.265556 69.423053 
L 310.707373 69.695341 
L 311.149191 69.348414 
L 311.591008 69.685312 
L 312.032825 69.686931 
L 312.474643 69.380014 
L 312.91646 69.80763 
L 313.358277 69.481783 
L 313.800095 69.596707 
L 314.241912 69.348519 
L 314.683729 69.674839 
L 315.125546 69.494206 
L 315.567364 69.743422 
L 316.009181 69.762377 
L 316.450998 69.55695 
L 317.334633 69.700821 
L 317.77645 69.462005 
L 318.218268 69.716816 
L 318.660085 69.405478 
L 319.985537 69.568634 
L 320.427354 69.329035 
L 320.869172 69.568958 
L 322.194624 69.667025 
L 323.520076 69.37442 
L 323.961893 69.433504 
L 324.40371 69.750474 
L 325.729162 69.382915 
L 326.17098 69.488827 
L 326.612797 69.712262 
L 327.496432 69.522313 
L 327.938249 69.64713 
L 328.380066 69.344195 
L 329.263701 69.736488 
L 330.147335 69.215763 
L 330.589153 69.624234 
L 331.472787 69.499581 
L 331.914605 69.372092 
L 332.356422 69.716108 
L 333.240057 69.3967 
L 333.681874 69.781062 
L 334.123691 69.625204 
L 334.565509 69.605785 
L 335.007326 69.276615 
L 335.449143 69.223469 
L 335.890961 69.327286 
L 336.332778 69.761956 
L 336.774595 69.258124 
L 337.216413 69.198762 
L 337.65823 69.316806 
L 338.100047 69.745482 
L 338.541865 69.067023 
L 338.983682 69.643591 
L 339.425499 69.286439 
L 339.867317 69.671626 
L 340.750951 69.94245 
L 341.634586 69.431984 
L 342.076403 69.540488 
L 342.51822 69.260232 
L 342.960038 69.21554 
L 343.401855 69.645501 
L 343.843672 69.643484 
L 344.28549 69.276713 
L 344.727307 69.531344 
L 345.169124 69.485255 
L 345.610942 69.597347 
L 346.052759 69.342612 
L 346.936394 69.57227 
L 347.378211 69.465548 
L 347.820028 69.158663 
L 348.261846 69.738679 
L 348.703663 69.66451 
L 349.14548 69.199402 
L 349.587298 69.771461 
L 350.029115 69.711515 
L 350.470932 69.875068 
L 350.91275 69.776652 
L 351.354567 69.84248 
L 352.680019 69.271022 
L 353.121836 69.221035 
L 353.563654 69.500549 
L 354.005471 69.47481 
L 354.447288 69.667441 
L 354.889106 69.330934 
L 355.330923 69.487023 
L 355.77274 69.896193 
L 356.214557 69.466787 
L 357.098192 69.45736 
L 357.540009 69.325331 
L 357.981827 69.745758 
L 358.423644 69.19727 
L 359.307279 69.738018 
L 359.749096 69.263075 
L 360.190913 69.530612 
L 360.632731 69.513548 
L 361.516365 69.807358 
L 361.958183 69.620649 
L 362.4 69.714168 
L 362.841817 69.693405 
L 363.283635 69.556212 
L 363.725452 69.193233 
L 364.167269 69.286622 
L 365.050904 68.836866 
L 365.492721 69.196571 
L 365.934539 68.863447 
L 366.376356 69.026097 
L 367.259991 69.646182 
L 367.701808 69.421633 
L 368.143625 70.108239 
L 368.585443 69.778971 
L 369.02726 69.721584 
L 369.469077 70.588469 
L 369.910894 69.818302 
L 370.352712 70.027394 
L 371.236346 69.979668 
L 372.119981 69.50922 
L 372.561798 69.635295 
L 373.445433 69.40249 
L 373.88725 68.789743 
L 374.329068 69.357309 
L 374.770885 69.328578 
L 375.212702 69.125375 
L 375.65452 69.590657 
L 376.096337 69.678391 
L 376.979972 69.989014 
L 377.421789 70.042614 
L 378.747241 69.785664 
L 379.189058 69.29697 
L 379.630876 69.093381 
L 380.51451 69.353345 
L 380.956328 68.695393 
L 381.839962 68.947722 
L 382.28178 68.965723 
L 383.165414 69.476453 
L 383.607231 69.905182 
L 384.049049 69.493675 
L 384.490866 70.215265 
L 385.374501 69.763917 
L 385.816318 69.926427 
L 386.258135 69.557875 
L 387.14177 69.828465 
L 387.583587 69.069011 
L 388.025405 69.377172 
L 388.467222 69.242117 
L 388.909039 69.624038 
L 389.792674 69.700441 
L 390.234491 69.415699 
L 390.676309 70.002178 
L 391.118126 69.729993 
L 391.559943 69.721339 
L 392.001761 70.048854 
L 392.443578 69.852787 
L 392.885395 70.313788 
L 393.76903 69.509248 
L 394.652665 69.165522 
L 395.094482 68.922283 
L 395.978117 69.096389 
L 396.419934 68.6718 
L 396.861751 69.101082 
L 397.303568 69.03149 
L 397.745386 69.34713 
L 398.62902 69.510711 
L 399.070838 70.1685 
L 399.512655 69.950682 
L 399.954472 70.312615 
L 400.39629 70.281987 
L 400.838107 69.784768 
L 401.279924 69.769121 
L 401.721742 69.632101 
L 402.605376 68.928966 
L 403.047194 69.028884 
L 403.489011 68.779395 
L 403.930828 68.726607 
L 405.25628 69.477912 
L 405.698098 70.101082 
L 406.139915 70.198262 
L 406.581732 70.0489 
L 407.02355 70.568177 
L 407.465367 70.448081 
L 407.907184 70.097748 
L 408.349002 70.210092 
L 408.790819 69.766142 
L 409.232636 69.923167 
L 409.674454 69.257526 
L 410.116271 68.920662 
L 410.558088 68.863806 
L 410.999905 68.944982 
L 411.441723 68.840458 
L 412.325357 69.044819 
L 412.767175 69.018025 
L 413.208992 69.66715 
L 413.650809 69.562641 
L 414.092627 69.804182 
L 414.976261 70.049383 
L 415.418079 69.96987 
L 415.859896 69.645318 
L 416.301713 69.799335 
L 417.185348 69.522968 
L 417.627165 69.087726 
L 418.068983 69.298255 
L 418.5108 69.032869 
L 418.952617 69.44764 
L 419.394435 69.440811 
L 420.719887 69.85841 
L 421.161704 69.458575 
L 421.603521 69.927017 
L 423.812608 69.43915 
L 424.254425 69.079626 
L 424.696242 69.083791 
L 425.579877 69.336201 
L 426.021694 69.812414 
L 426.463512 69.383785 
L 426.905329 69.483292 
L 427.788964 70.34236 
L 428.230781 70.308366 
L 428.672598 67.84734 
L 429.556233 59.088032 
L 431.323502 46.087736 
L 431.76532 43.423769 
L 433.090772 37.875319 
L 433.532589 36.65628 
L 433.974406 34.903281 
L 434.416224 34.076492 
L 435.299858 31.402404 
L 436.183493 29.448418 
L 438.392579 23.654385 
L 439.718031 21.244306 
L 440.159849 20.799907 
L 440.601666 21.04667 
L 441.043483 20.538764 
L 441.927118 20.371163 
L 442.810753 20.30496 
L 443.25257 19.725471 
L 443.694387 19.945722 
L 444.136205 19.487409 
L 445.019839 18.838738 
L 445.461657 18.296957 
L 445.903474 17.477273 
L 446.345291 20.141909 
L 447.228926 27.809234 
L 448.554378 37.286392 
L 449.87983 44.324726 
L 450.763465 47.827461 
L 451.647099 51.610158 
L 452.088916 52.912121 
L 452.530734 54.615197 
L 452.972551 55.580788 
L 453.856186 58.767193 
L 454.298003 59.428107 
L 454.73982 60.468639 
L 455.623455 61.619133 
L 456.065272 62.220972 
L 456.50709 62.085538 
L 456.948907 62.36008 
L 457.390724 62.081267 
L 457.832542 62.465757 
L 458.274359 62.501133 
L 459.157994 63.272415 
L 460.041628 65.419538 
L 460.483446 67.288559 
L 461.808898 75.082395 
L 463.576167 92.347876 
L 465.785253 114.612008 
L 467.110705 124.741384 
L 468.436157 131.944473 
L 468.877975 133.570651 
L 469.761609 135.651965 
L 470.645244 137.503627 
L 471.087061 138.20859 
L 471.970696 140.119752 
L 472.412513 141.036018 
L 472.854331 142.390282 
L 473.737965 144.326566 
L 474.179783 145.421025 
L 474.6216 147.057005 
L 475.063417 148.101925 
L 475.505235 149.467303 
L 475.947052 149.826179 
L 476.388869 151.022727 
L 476.830687 150.825389 
L 477.714321 149.59045 
L 478.156138 148.179988 
L 479.039773 144.412495 
L 480.365225 134.284938 
L 483.457946 106.219753 
L 484.783398 96.898077 
L 486.10885 90.614743 
L 487.434302 86.243538 
L 489.643389 81.189805 
L 490.085206 80.23337 
L 490.527024 79.600633 
L 491.410658 77.637516 
L 491.852475 77.170976 
L 492.294293 76.240983 
L 492.73611 76.314883 
L 493.177927 75.158649 
L 493.619745 74.461143 
L 494.061562 74.160717 
L 495.387014 72.363285 
L 495.828831 72.154425 
L 496.270649 72.138677 
L 497.596101 71.211117 
L 498.037918 71.739383 
L 498.479735 71.72273 
L 499.36337 72.03986 
L 500.247005 71.595521 
L 500.688822 71.644813 
L 501.130639 71.579153 
L 501.572457 71.323931 
L 502.014274 70.70286 
L 502.897909 70.852035 
L 503.339726 70.242317 
L 503.781543 70.182997 
L 504.665178 69.901358 
L 505.106995 69.890441 
L 505.99063 69.677728 
L 506.432447 70.079902 
L 506.874264 70.111942 
L 507.316082 70.433645 
L 508.641534 70.035209 
L 509.083351 70.151133 
L 509.525168 70.144555 
L 509.966986 69.985307 
L 510.408803 69.562562 
L 511.292438 69.709628 
L 511.734255 69.260462 
L 512.61789 69.478611 
L 513.501524 69.511603 
L 514.826976 69.282204 
L 515.268794 69.07165 
L 516.152428 69.468979 
L 516.594246 69.477136 
L 517.47788 69.247443 
L 517.919698 69.295283 
L 518.361515 69.905992 
L 520.128784 69.362458 
L 520.570601 69.464334 
L 521.012419 69.374711 
L 521.896053 69.607494 
L 522.337871 69.47923 
L 522.779688 69.477904 
L 523.663323 69.277146 
L 524.10514 69.51917 
L 524.546957 69.632236 
L 524.988775 69.338969 
L 525.872409 69.645783 
L 526.756044 69.491287 
L 527.197861 69.917087 
L 527.639679 69.854332 
L 528.081496 69.496991 
L 528.523313 69.713369 
L 529.406948 69.464849 
L 530.290583 69.235571 
L 530.7324 69.429896 
L 531.174217 69.44585 
L 531.616035 69.710174 
L 532.057852 69.664198 
L 532.499669 69.26083 
L 532.941486 69.643029 
L 533.383304 69.354942 
L 533.825121 69.415819 
L 534.266938 69.886586 
L 534.708756 69.417923 
L 535.150573 69.571161 
L 535.59239 69.309029 
L 536.034208 69.603154 
L 536.917842 69.363563 
L 537.35966 69.746574 
L 537.801477 69.616888 
L 538.243294 69.736693 
L 538.685112 69.288172 
L 539.126929 69.843684 
L 539.568746 69.257093 
L 540.010564 69.500372 
L 540.452381 69.294548 
L 540.894198 69.409958 
L 541.336016 69.31355 
L 541.777833 69.546363 
L 542.661468 69.584537 
L 543.103285 69.461081 
L 543.545102 69.736093 
L 543.98692 69.483152 
L 544.428737 69.82022 
L 544.870554 69.613505 
L 545.754189 69.640117 
L 546.637823 69.263594 
L 547.079641 69.554275 
L 547.963275 69.495018 
L 548.405093 69.545252 
L 548.84691 69.443018 
L 549.288727 69.509316 
L 549.730545 69.757256 
L 550.172362 69.600284 
L 551.939631 69.456721 
L 552.381449 69.589636 
L 553.265083 69.561003 
L 553.706901 69.328833 
L 554.148718 69.646241 
L 555.032353 69.498987 
L 555.47417 69.646631 
L 555.915987 69.505165 
L 556.357805 69.863776 
L 556.799622 69.460466 
L 557.241439 69.839667 
L 558.125074 69.323222 
L 558.566891 69.54896 
L 559.008709 69.437836 
L 559.892343 69.654199 
L 560.33416 69.43499 
L 560.33416 69.43499 
" style="fill:none;stroke:#dd8452;stroke-linecap:round;stroke-width:3;"/>
   </g>
   <g id="patch_8">
    <path d="M 362.4 157.7 
L 362.4 10.8 
" style="fill:none;stroke:#262626;stroke-linecap:square;stroke-linejoin:miter;stroke-width:1.25;"/>
   </g>
   <g id="patch_9">
    <path d="M 560.33416 157.7 
L 560.33416 10.8 
" style="fill:none;stroke:#262626;stroke-linecap:square;stroke-linejoin:miter;stroke-width:1.25;"/>
   </g>
   <g id="patch_10">
    <path d="M 362.4 157.7 
L 560.33416 157.7 
" style="fill:none;stroke:#262626;stroke-linecap:square;stroke-linejoin:miter;stroke-width:1.25;"/>
   </g>
   <g id="patch_11">
    <path d="M 362.4 10.8 
L 560.33416 10.8 
" style="fill:none;stroke:#262626;stroke-linecap:square;stroke-linejoin:miter;stroke-width:1.25;"/>
   </g>
  </g>
 </g>
 <defs>
  <clipPath id="p62c70d52d0">
   <rect height="146.9" width="197.93416" x="79.8" y="10.8"/>
  </clipPath>
  <clipPath id="pbad4922ad6">
   <rect height="146.9" width="197.93416" x="362.4" y="10.8"/>
  </clipPath>
 </defs>
</svg>
