<?xml version="1.0" encoding="utf-8" standalone="no"?>
<!DOCTYPE svg PUBLIC "-//W3C//DTD SVG 1.1//EN"
  "http://www.w3.org/Graphics/SVG/1.1/DTD/svg11.dtd">
<!-- Created with matplotlib (https://matplotlib.org/) -->
<svg height="216pt" version="1.1" viewBox="0 0 576 216" width="576pt" xmlns="http://www.w3.org/2000/svg" xmlns:xlink="http://www.w3.org/1999/xlink">
 <metadata>
  <rdf:RDF xmlns:cc="http://creativecommons.org/ns#" xmlns:dc="http://purl.org/dc/elements/1.1/" xmlns:rdf="http://www.w3.org/1999/02/22-rdf-syntax-ns#">
   <cc:Work>
    <dc:type rdf:resource="http://purl.org/dc/dcmitype/StillImage"/>
    <dc:date>2022-10-02T12:45:57.047081</dc:date>
    <dc:format>image/svg+xml</dc:format>
    <dc:creator>
     <cc:Agent>
      <dc:title>Matplotlib v3.3.4, https://matplotlib.org/</dc:title>
     </cc:Agent>
    </dc:creator>
   </cc:Work>
  </rdf:RDF>
 </metadata>
 <defs>
  <style type="text/css">*{stroke-linecap:butt;stroke-linejoin:round;}</style>
 </defs>
 <g id="figure_1">
  <g id="patch_1">
   <path d="M 0 216 
L 576 216 
L 576 0 
L 0 0 
z
" style="fill:none;"/>
  </g>
  <g id="axes_1">
   <g id="patch_2">
    <path d="M 74.925 157.7 
L 277.842239 157.7 
L 277.842239 10.8 
L 74.925 10.8 
z
" style="fill:#ffffff;"/>
   </g>
   <g id="matplotlib.axis_1">
    <g id="xtick_1">
     <g id="text_1">
      <!-- 0 -->
      <g style="fill:#262626;" transform="translate(70.153125 178.597656)scale(0.15 -0.15)">
       <defs>
        <path d="M 31.78125 66.40625 
Q 24.171875 66.40625 20.328125 58.90625 
Q 16.5 51.421875 16.5 36.375 
Q 16.5 21.390625 20.328125 13.890625 
Q 24.171875 6.390625 31.78125 6.390625 
Q 39.453125 6.390625 43.28125 13.890625 
Q 47.125 21.390625 47.125 36.375 
Q 47.125 51.421875 43.28125 58.90625 
Q 39.453125 66.40625 31.78125 66.40625 
z
M 31.78125 74.21875 
Q 44.046875 74.21875 50.515625 64.515625 
Q 56.984375 54.828125 56.984375 36.375 
Q 56.984375 17.96875 50.515625 8.265625 
Q 44.046875 -1.421875 31.78125 -1.421875 
Q 19.53125 -1.421875 13.0625 8.265625 
Q 6.59375 17.96875 6.59375 36.375 
Q 6.59375 54.828125 13.0625 64.515625 
Q 19.53125 74.21875 31.78125 74.21875 
z
" id="DejaVuSans-48"/>
       </defs>
       <use xlink:href="#DejaVuSans-48"/>
      </g>
     </g>
    </g>
    <g id="xtick_2">
     <g id="text_2">
      <!-- 50 -->
      <g style="fill:#262626;" transform="translate(104.053673 178.597656)scale(0.15 -0.15)">
       <defs>
        <path d="M 10.796875 72.90625 
L 49.515625 72.90625 
L 49.515625 64.59375 
L 19.828125 64.59375 
L 19.828125 46.734375 
Q 21.96875 47.46875 24.109375 47.828125 
Q 26.265625 48.1875 28.421875 48.1875 
Q 40.625 48.1875 47.75 41.5 
Q 54.890625 34.8125 54.890625 23.390625 
Q 54.890625 11.625 47.5625 5.09375 
Q 40.234375 -1.421875 26.90625 -1.421875 
Q 22.3125 -1.421875 17.546875 -0.640625 
Q 12.796875 0.140625 7.71875 1.703125 
L 7.71875 11.625 
Q 12.109375 9.234375 16.796875 8.0625 
Q 21.484375 6.890625 26.703125 6.890625 
Q 35.15625 6.890625 40.078125 11.328125 
Q 45.015625 15.765625 45.015625 23.390625 
Q 45.015625 31 40.078125 35.4375 
Q 35.15625 39.890625 26.703125 39.890625 
Q 22.75 39.890625 18.8125 39.015625 
Q 14.890625 38.140625 10.796875 36.28125 
z
" id="DejaVuSans-53"/>
       </defs>
       <use xlink:href="#DejaVuSans-53"/>
       <use x="63.623047" xlink:href="#DejaVuSans-48"/>
      </g>
     </g>
    </g>
    <g id="xtick_3">
     <g id="text_3">
      <!-- 100 -->
      <g style="fill:#262626;" transform="translate(137.954222 178.597656)scale(0.15 -0.15)">
       <defs>
        <path d="M 12.40625 8.296875 
L 28.515625 8.296875 
L 28.515625 63.921875 
L 10.984375 60.40625 
L 10.984375 69.390625 
L 28.421875 72.90625 
L 38.28125 72.90625 
L 38.28125 8.296875 
L 54.390625 8.296875 
L 54.390625 0 
L 12.40625 0 
z
" id="DejaVuSans-49"/>
       </defs>
       <use xlink:href="#DejaVuSans-49"/>
       <use x="63.623047" xlink:href="#DejaVuSans-48"/>
       <use x="127.246094" xlink:href="#DejaVuSans-48"/>
      </g>
     </g>
    </g>
    <g id="xtick_4">
     <g id="text_4">
      <!-- 150 -->
      <g style="fill:#262626;" transform="translate(176.626645 178.597656)scale(0.15 -0.15)">
       <use xlink:href="#DejaVuSans-49"/>
       <use x="63.623047" xlink:href="#DejaVuSans-53"/>
       <use x="127.246094" xlink:href="#DejaVuSans-48"/>
      </g>
     </g>
    </g>
    <g id="xtick_5">
     <g id="text_5">
      <!-- 200 -->
      <g style="fill:#262626;" transform="translate(215.299068 178.597656)scale(0.15 -0.15)">
       <defs>
        <path d="M 19.1875 8.296875 
L 53.609375 8.296875 
L 53.609375 0 
L 7.328125 0 
L 7.328125 8.296875 
Q 12.9375 14.109375 22.625 23.890625 
Q 32.328125 33.6875 34.8125 36.53125 
Q 39.546875 41.84375 41.421875 45.53125 
Q 43.3125 49.21875 43.3125 52.78125 
Q 43.3125 58.59375 39.234375 62.25 
Q 35.15625 65.921875 28.609375 65.921875 
Q 23.96875 65.921875 18.8125 64.3125 
Q 13.671875 62.703125 7.8125 59.421875 
L 7.8125 69.390625 
Q 13.765625 71.78125 18.9375 73 
Q 24.125 74.21875 28.421875 74.21875 
Q 39.75 74.21875 46.484375 68.546875 
Q 53.21875 62.890625 53.21875 53.421875 
Q 53.21875 48.921875 51.53125 44.890625 
Q 49.859375 40.875 45.40625 35.40625 
Q 44.1875 33.984375 37.640625 27.21875 
Q 31.109375 20.453125 19.1875 8.296875 
z
" id="DejaVuSans-50"/>
       </defs>
       <use xlink:href="#DejaVuSans-50"/>
       <use x="63.623047" xlink:href="#DejaVuSans-48"/>
       <use x="127.246094" xlink:href="#DejaVuSans-48"/>
      </g>
     </g>
    </g>
    <g id="xtick_6">
     <g id="text_6">
      <!-- 250 -->
      <g style="fill:#262626;" transform="translate(253.971491 178.597656)scale(0.15 -0.15)">
       <use xlink:href="#DejaVuSans-50"/>
       <use x="63.623047" xlink:href="#DejaVuSans-53"/>
       <use x="127.246094" xlink:href="#DejaVuSans-48"/>
      </g>
     </g>
    </g>
    <g id="text_7">
     <!-- Time (ms) -->
     <g style="fill:#262626;" transform="translate(125.985182 200.914062)scale(0.2 -0.2)">
      <defs>
       <path d="M -0.296875 72.90625 
L 61.375 72.90625 
L 61.375 64.59375 
L 35.5 64.59375 
L 35.5 0 
L 25.59375 0 
L 25.59375 64.59375 
L -0.296875 64.59375 
z
" id="DejaVuSans-84"/>
       <path d="M 9.421875 54.6875 
L 18.40625 54.6875 
L 18.40625 0 
L 9.421875 0 
z
M 9.421875 75.984375 
L 18.40625 75.984375 
L 18.40625 64.59375 
L 9.421875 64.59375 
z
" id="DejaVuSans-105"/>
       <path d="M 52 44.1875 
Q 55.375 50.25 60.0625 53.125 
Q 64.75 56 71.09375 56 
Q 79.640625 56 84.28125 50.015625 
Q 88.921875 44.046875 88.921875 33.015625 
L 88.921875 0 
L 79.890625 0 
L 79.890625 32.71875 
Q 79.890625 40.578125 77.09375 44.375 
Q 74.3125 48.1875 68.609375 48.1875 
Q 61.625 48.1875 57.5625 43.546875 
Q 53.515625 38.921875 53.515625 30.90625 
L 53.515625 0 
L 44.484375 0 
L 44.484375 32.71875 
Q 44.484375 40.625 41.703125 44.40625 
Q 38.921875 48.1875 33.109375 48.1875 
Q 26.21875 48.1875 22.15625 43.53125 
Q 18.109375 38.875 18.109375 30.90625 
L 18.109375 0 
L 9.078125 0 
L 9.078125 54.6875 
L 18.109375 54.6875 
L 18.109375 46.1875 
Q 21.1875 51.21875 25.484375 53.609375 
Q 29.78125 56 35.6875 56 
Q 41.65625 56 45.828125 52.96875 
Q 50 49.953125 52 44.1875 
z
" id="DejaVuSans-109"/>
       <path d="M 56.203125 29.59375 
L 56.203125 25.203125 
L 14.890625 25.203125 
Q 15.484375 15.921875 20.484375 11.0625 
Q 25.484375 6.203125 34.421875 6.203125 
Q 39.59375 6.203125 44.453125 7.46875 
Q 49.3125 8.734375 54.109375 11.28125 
L 54.109375 2.78125 
Q 49.265625 0.734375 44.1875 -0.34375 
Q 39.109375 -1.421875 33.890625 -1.421875 
Q 20.796875 -1.421875 13.15625 6.1875 
Q 5.515625 13.8125 5.515625 26.8125 
Q 5.515625 40.234375 12.765625 48.109375 
Q 20.015625 56 32.328125 56 
Q 43.359375 56 49.78125 48.890625 
Q 56.203125 41.796875 56.203125 29.59375 
z
M 47.21875 32.234375 
Q 47.125 39.59375 43.09375 43.984375 
Q 39.0625 48.390625 32.421875 48.390625 
Q 24.90625 48.390625 20.390625 44.140625 
Q 15.875 39.890625 15.1875 32.171875 
z
" id="DejaVuSans-101"/>
       <path id="DejaVuSans-32"/>
       <path d="M 31 75.875 
Q 24.46875 64.65625 21.28125 53.65625 
Q 18.109375 42.671875 18.109375 31.390625 
Q 18.109375 20.125 21.3125 9.0625 
Q 24.515625 -2 31 -13.1875 
L 23.1875 -13.1875 
Q 15.875 -1.703125 12.234375 9.375 
Q 8.59375 20.453125 8.59375 31.390625 
Q 8.59375 42.28125 12.203125 53.3125 
Q 15.828125 64.359375 23.1875 75.875 
z
" id="DejaVuSans-40"/>
       <path d="M 44.28125 53.078125 
L 44.28125 44.578125 
Q 40.484375 46.53125 36.375 47.5 
Q 32.28125 48.484375 27.875 48.484375 
Q 21.1875 48.484375 17.84375 46.4375 
Q 14.5 44.390625 14.5 40.28125 
Q 14.5 37.15625 16.890625 35.375 
Q 19.28125 33.59375 26.515625 31.984375 
L 29.59375 31.296875 
Q 39.15625 29.25 43.1875 25.515625 
Q 47.21875 21.78125 47.21875 15.09375 
Q 47.21875 7.46875 41.1875 3.015625 
Q 35.15625 -1.421875 24.609375 -1.421875 
Q 20.21875 -1.421875 15.453125 -0.5625 
Q 10.6875 0.296875 5.421875 2 
L 5.421875 11.28125 
Q 10.40625 8.6875 15.234375 7.390625 
Q 20.0625 6.109375 24.8125 6.109375 
Q 31.15625 6.109375 34.5625 8.28125 
Q 37.984375 10.453125 37.984375 14.40625 
Q 37.984375 18.0625 35.515625 20.015625 
Q 33.0625 21.96875 24.703125 23.78125 
L 21.578125 24.515625 
Q 13.234375 26.265625 9.515625 29.90625 
Q 5.8125 33.546875 5.8125 39.890625 
Q 5.8125 47.609375 11.28125 51.796875 
Q 16.75 56 26.8125 56 
Q 31.78125 56 36.171875 55.265625 
Q 40.578125 54.546875 44.28125 53.078125 
z
" id="DejaVuSans-115"/>
       <path d="M 8.015625 75.875 
L 15.828125 75.875 
Q 23.140625 64.359375 26.78125 53.3125 
Q 30.421875 42.28125 30.421875 31.390625 
Q 30.421875 20.453125 26.78125 9.375 
Q 23.140625 -1.703125 15.828125 -13.1875 
L 8.015625 -13.1875 
Q 14.5 -2 17.703125 9.0625 
Q 20.90625 20.125 20.90625 31.390625 
Q 20.90625 42.671875 17.703125 53.65625 
Q 14.5 64.65625 8.015625 75.875 
z
" id="DejaVuSans-41"/>
      </defs>
      <use xlink:href="#DejaVuSans-84"/>
      <use x="57.958984" xlink:href="#DejaVuSans-105"/>
      <use x="85.742188" xlink:href="#DejaVuSans-109"/>
      <use x="183.154297" xlink:href="#DejaVuSans-101"/>
      <use x="244.677734" xlink:href="#DejaVuSans-32"/>
      <use x="276.464844" xlink:href="#DejaVuSans-40"/>
      <use x="315.478516" xlink:href="#DejaVuSans-109"/>
      <use x="412.890625" xlink:href="#DejaVuSans-115"/>
      <use x="464.990234" xlink:href="#DejaVuSans-41"/>
     </g>
    </g>
   </g>
   <g id="matplotlib.axis_2">
    <g id="ytick_1">
     <g id="text_8">
      <!-- −10 -->
      <g style="fill:#262626;" transform="translate(33.767969 151.112285)scale(0.15 -0.15)">
       <defs>
        <path d="M 10.59375 35.5 
L 73.1875 35.5 
L 73.1875 27.203125 
L 10.59375 27.203125 
z
" id="DejaVuSans-8722"/>
       </defs>
       <use xlink:href="#DejaVuSans-8722"/>
       <use x="83.789062" xlink:href="#DejaVuSans-49"/>
       <use x="147.412109" xlink:href="#DejaVuSans-48"/>
      </g>
     </g>
    </g>
    <g id="ytick_2">
     <g id="text_9">
      <!-- −5 -->
      <g style="fill:#262626;" transform="translate(43.311719 120.11922)scale(0.15 -0.15)">
       <use xlink:href="#DejaVuSans-8722"/>
       <use x="83.789062" xlink:href="#DejaVuSans-53"/>
      </g>
     </g>
    </g>
    <g id="ytick_3">
     <g id="text_10">
      <!-- 0 -->
      <g style="fill:#262626;" transform="translate(55.88125 89.126154)scale(0.15 -0.15)">
       <use xlink:href="#DejaVuSans-48"/>
      </g>
     </g>
    </g>
    <g id="ytick_4">
     <g id="text_11">
      <!-- 5 -->
      <g style="fill:#262626;" transform="translate(55.88125 58.133089)scale(0.15 -0.15)">
       <use xlink:href="#DejaVuSans-53"/>
      </g>
     </g>
    </g>
    <g id="ytick_5">
     <g id="text_12">
      <!-- 10 -->
      <g style="fill:#262626;" transform="translate(46.3375 27.140023)scale(0.15 -0.15)">
       <use xlink:href="#DejaVuSans-49"/>
       <use x="63.623047" xlink:href="#DejaVuSans-48"/>
      </g>
     </g>
    </g>
    <g id="text_13">
     <!-- Dipole (nAm) -->
     <g style="fill:#262626;" transform="translate(25.608594 150.026563)rotate(-90)scale(0.2 -0.2)">
      <defs>
       <path d="M 19.671875 64.796875 
L 19.671875 8.109375 
L 31.59375 8.109375 
Q 46.6875 8.109375 53.6875 14.9375 
Q 60.6875 21.78125 60.6875 36.53125 
Q 60.6875 51.171875 53.6875 57.984375 
Q 46.6875 64.796875 31.59375 64.796875 
z
M 9.8125 72.90625 
L 30.078125 72.90625 
Q 51.265625 72.90625 61.171875 64.09375 
Q 71.09375 55.28125 71.09375 36.53125 
Q 71.09375 17.671875 61.125 8.828125 
Q 51.171875 0 30.078125 0 
L 9.8125 0 
z
" id="DejaVuSans-68"/>
       <path d="M 18.109375 8.203125 
L 18.109375 -20.796875 
L 9.078125 -20.796875 
L 9.078125 54.6875 
L 18.109375 54.6875 
L 18.109375 46.390625 
Q 20.953125 51.265625 25.265625 53.625 
Q 29.59375 56 35.59375 56 
Q 45.5625 56 51.78125 48.09375 
Q 58.015625 40.1875 58.015625 27.296875 
Q 58.015625 14.40625 51.78125 6.484375 
Q 45.5625 -1.421875 35.59375 -1.421875 
Q 29.59375 -1.421875 25.265625 0.953125 
Q 20.953125 3.328125 18.109375 8.203125 
z
M 48.6875 27.296875 
Q 48.6875 37.203125 44.609375 42.84375 
Q 40.53125 48.484375 33.40625 48.484375 
Q 26.265625 48.484375 22.1875 42.84375 
Q 18.109375 37.203125 18.109375 27.296875 
Q 18.109375 17.390625 22.1875 11.75 
Q 26.265625 6.109375 33.40625 6.109375 
Q 40.53125 6.109375 44.609375 11.75 
Q 48.6875 17.390625 48.6875 27.296875 
z
" id="DejaVuSans-112"/>
       <path d="M 30.609375 48.390625 
Q 23.390625 48.390625 19.1875 42.75 
Q 14.984375 37.109375 14.984375 27.296875 
Q 14.984375 17.484375 19.15625 11.84375 
Q 23.34375 6.203125 30.609375 6.203125 
Q 37.796875 6.203125 41.984375 11.859375 
Q 46.1875 17.53125 46.1875 27.296875 
Q 46.1875 37.015625 41.984375 42.703125 
Q 37.796875 48.390625 30.609375 48.390625 
z
M 30.609375 56 
Q 42.328125 56 49.015625 48.375 
Q 55.71875 40.765625 55.71875 27.296875 
Q 55.71875 13.875 49.015625 6.21875 
Q 42.328125 -1.421875 30.609375 -1.421875 
Q 18.84375 -1.421875 12.171875 6.21875 
Q 5.515625 13.875 5.515625 27.296875 
Q 5.515625 40.765625 12.171875 48.375 
Q 18.84375 56 30.609375 56 
z
" id="DejaVuSans-111"/>
       <path d="M 9.421875 75.984375 
L 18.40625 75.984375 
L 18.40625 0 
L 9.421875 0 
z
" id="DejaVuSans-108"/>
       <path d="M 54.890625 33.015625 
L 54.890625 0 
L 45.90625 0 
L 45.90625 32.71875 
Q 45.90625 40.484375 42.875 44.328125 
Q 39.84375 48.1875 33.796875 48.1875 
Q 26.515625 48.1875 22.3125 43.546875 
Q 18.109375 38.921875 18.109375 30.90625 
L 18.109375 0 
L 9.078125 0 
L 9.078125 54.6875 
L 18.109375 54.6875 
L 18.109375 46.1875 
Q 21.34375 51.125 25.703125 53.5625 
Q 30.078125 56 35.796875 56 
Q 45.21875 56 50.046875 50.171875 
Q 54.890625 44.34375 54.890625 33.015625 
z
" id="DejaVuSans-110"/>
       <path d="M 34.1875 63.1875 
L 20.796875 26.90625 
L 47.609375 26.90625 
z
M 28.609375 72.90625 
L 39.796875 72.90625 
L 67.578125 0 
L 57.328125 0 
L 50.6875 18.703125 
L 17.828125 18.703125 
L 11.1875 0 
L 0.78125 0 
z
" id="DejaVuSans-65"/>
      </defs>
      <use xlink:href="#DejaVuSans-68"/>
      <use x="77.001953" xlink:href="#DejaVuSans-105"/>
      <use x="104.785156" xlink:href="#DejaVuSans-112"/>
      <use x="168.261719" xlink:href="#DejaVuSans-111"/>
      <use x="229.443359" xlink:href="#DejaVuSans-108"/>
      <use x="257.226562" xlink:href="#DejaVuSans-101"/>
      <use x="318.75" xlink:href="#DejaVuSans-32"/>
      <use x="350.537109" xlink:href="#DejaVuSans-40"/>
      <use x="389.550781" xlink:href="#DejaVuSans-110"/>
      <use x="452.929688" xlink:href="#DejaVuSans-65"/>
      <use x="521.337891" xlink:href="#DejaVuSans-109"/>
      <use x="618.75" xlink:href="#DejaVuSans-41"/>
     </g>
    </g>
   </g>
   <g id="line2d_1">
    <path clip-path="url(#p5bb366f1fe)" d="M 7.135276 86.356158 
L 13.914249 86.31797 
L 20.693221 86.532073 
L 43.741727 87.453649 
L 55.040014 87.586561 
L 68.146028 87.504173 
L 82.607835 87.189807 
L 100.685095 86.562774 
L 125.541327 85.456522 
L 135.48382 84.924605 
L 136.839614 84.581035 
L 138.195409 84.017061 
L 139.551203 83.183016 
L 142.262792 81.313956 
L 143.166655 80.965648 
L 144.070518 80.907066 
L 144.974381 81.1899 
L 145.878244 81.821197 
L 146.782107 82.758425 
L 148.589833 85.150667 
L 149.945627 86.828507 
L 150.84949 87.589524 
L 151.301422 87.806917 
L 151.753353 87.895047 
L 152.205285 87.841819 
L 152.657216 87.638243 
L 153.561079 86.842624 
L 154.464942 85.551929 
L 155.368805 83.819679 
L 156.7246 80.6678 
L 159.436189 74.11785 
L 160.791983 71.444744 
L 161.695846 70.023478 
L 162.599709 68.914355 
L 163.503572 68.116317 
L 164.407435 67.614541 
L 165.311298 67.384452 
L 166.215161 67.395271 
L 167.119024 67.612927 
L 168.474819 68.250732 
L 169.830613 69.16156 
L 172.09027 71.017882 
L 176.609585 74.84481 
L 178.869243 76.452476 
L 181.1289 77.765812 
L 183.388558 78.786979 
L 185.648215 79.54604 
L 187.907873 80.085311 
L 190.619462 80.504911 
L 193.782982 80.768115 
L 197.850365 80.880785 
L 204.177406 80.809419 
L 225.418186 80.197192 
L 254.793733 79.503932 
L 271.063267 79.263156 
L 273.322924 79.463842 
L 275.13065 79.867119 
L 276.938376 80.500311 
L 277.842239 80.879827 
L 277.842239 80.879827 
" style="fill:none;stroke:#4c72b0;stroke-linecap:round;stroke-width:3;"/>
   </g>
   <g id="line2d_2">
    <path clip-path="url(#p5bb366f1fe)" d="M 7.135276 86.356158 
L 13.914249 86.31797 
L 20.693221 86.532073 
L 43.741727 87.453649 
L 55.040014 87.586561 
L 68.146028 87.504173 
L 82.607835 87.189807 
L 100.685095 86.562774 
L 125.541327 85.456522 
L 135.031888 84.974244 
L 135.935751 84.61396 
L 136.839614 83.876913 
L 137.743477 82.605562 
L 138.64734 80.572216 
L 139.551203 77.55563 
L 140.455066 73.409705 
L 141.358929 68.107312 
L 142.714724 58.268902 
L 146.330176 29.290151 
L 147.234038 23.87058 
L 148.137901 19.98635 
L 148.589833 18.694525 
L 149.041764 17.857178 
L 149.493696 17.477273 
L 149.945627 17.547324 
L 150.397559 18.049472 
L 150.84949 18.955858 
L 151.753353 21.824015 
L 152.657216 25.759107 
L 154.013011 32.996145 
L 157.176531 50.677771 
L 158.532326 57.018516 
L 159.88812 62.33655 
L 161.243915 66.662898 
L 162.599709 70.099079 
L 163.955504 72.776454 
L 165.311298 74.832502 
L 166.667093 76.397216 
L 168.022887 77.585304 
L 169.830613 78.963147 
L 170.734476 79.900376 
L 171.638339 81.210121 
L 172.542202 83.109172 
L 173.446065 85.831348 
L 174.349928 89.572694 
L 175.253791 94.443502 
L 176.157654 100.434238 
L 177.513448 111.162687 
L 180.676969 137.868823 
L 181.580832 143.782852 
L 182.484695 148.110016 
L 182.936626 149.580804 
L 183.388558 150.55587 
L 183.840489 151.022727 
L 184.292421 150.979875 
L 184.744352 150.436967 
L 185.196284 149.414734 
L 185.648215 147.944572 
L 186.552078 143.835263 
L 187.455941 138.443499 
L 188.811736 128.728171 
L 191.975256 104.997755 
L 193.331051 96.374618 
L 194.686845 89.234986 
L 196.042639 83.638323 
L 196.946502 80.724167 
L 197.850365 78.407385 
L 198.754228 76.627393 
L 199.658091 75.318458 
L 200.561954 74.413766 
L 201.465817 73.848425 
L 202.36968 73.561543 
L 203.273543 73.497531 
L 204.629338 73.712711 
L 205.985132 74.178605 
L 208.24479 75.226361 
L 212.312173 77.128471 
L 214.571831 77.947453 
L 216.831488 78.553958 
L 219.543077 79.030927 
L 222.706597 79.323731 
L 226.773981 79.441329 
L 233.552953 79.371102 
L 263.380432 78.911691 
L 271.515198 78.910594 
L 273.322924 79.117256 
L 275.13065 79.562862 
L 276.938376 80.254723 
L 277.842239 80.667731 
L 277.842239 80.667731 
" style="fill:none;stroke:#dd8452;stroke-linecap:round;stroke-width:3;"/>
   </g>
   <g id="patch_3">
    <path d="M 74.925 157.7 
L 74.925 10.8 
" style="fill:none;stroke:#262626;stroke-linecap:square;stroke-linejoin:miter;stroke-width:1.25;"/>
   </g>
   <g id="patch_4">
    <path d="M 277.842239 157.7 
L 277.842239 10.8 
" style="fill:none;stroke:#262626;stroke-linecap:square;stroke-linejoin:miter;stroke-width:1.25;"/>
   </g>
   <g id="patch_5">
    <path d="M 74.925 157.7 
L 277.842239 157.7 
" style="fill:none;stroke:#262626;stroke-linecap:square;stroke-linejoin:miter;stroke-width:1.25;"/>
   </g>
   <g id="patch_6">
    <path d="M 74.925 10.8 
L 277.842239 10.8 
" style="fill:none;stroke:#262626;stroke-linecap:square;stroke-linejoin:miter;stroke-width:1.25;"/>
   </g>
   <g id="PathCollection_1">
    <defs>
     <path d="M 0 3.872983 
C 1.027127 3.872983 2.012324 3.464901 2.738613 2.738613 
C 3.464901 2.012324 3.872983 1.027127 3.872983 0 
C 3.872983 -1.027127 3.464901 -2.012324 2.738613 -2.738613 
C 2.012324 -3.464901 1.027127 -3.872983 0 -3.872983 
C -1.027127 -3.872983 -2.012324 -3.464901 -2.738613 -2.738613 
C -3.464901 -2.012324 -3.872983 -1.027127 -3.872983 0 
C -3.872983 1.027127 -3.464901 2.012324 -2.738613 2.738613 
C -2.012324 3.464901 -1.027127 3.872983 0 3.872983 
z
" id="m6cebff558f" style="stroke:#1a1a1a;"/>
    </defs>
    <g clip-path="url(#p5bb366f1fe)">
     <use style="fill:#1a1a1a;stroke:#1a1a1a;" x="149.493696" xlink:href="#m6cebff558f" y="17.477275"/>
    </g>
   </g>
   <g id="PathCollection_2">
    <g clip-path="url(#p5bb366f1fe)">
     <use style="fill:#1a1a1a;stroke:#1a1a1a;" x="183.840489" xlink:href="#m6cebff558f" y="151.022726"/>
    </g>
   </g>
  </g>
  <g id="axes_2">
   <g id="patch_7">
    <path d="M 357.525 157.7 
L 560.442239 157.7 
L 560.442239 10.8 
L 357.525 10.8 
z
" style="fill:#ffffff;"/>
   </g>
   <g id="matplotlib.axis_3">
    <g id="xtick_7">
     <g id="text_14">
      <!-- 0 -->
      <g style="fill:#262626;" transform="translate(352.753125 178.597656)scale(0.15 -0.15)">
       <use xlink:href="#DejaVuSans-48"/>
      </g>
     </g>
    </g>
    <g id="xtick_8">
     <g id="text_15">
      <!-- 50 -->
      <g style="fill:#262626;" transform="translate(386.653673 178.597656)scale(0.15 -0.15)">
       <use xlink:href="#DejaVuSans-53"/>
       <use x="63.623047" xlink:href="#DejaVuSans-48"/>
      </g>
     </g>
    </g>
    <g id="xtick_9">
     <g id="text_16">
      <!-- 100 -->
      <g style="fill:#262626;" transform="translate(420.554222 178.597656)scale(0.15 -0.15)">
       <use xlink:href="#DejaVuSans-49"/>
       <use x="63.623047" xlink:href="#DejaVuSans-48"/>
       <use x="127.246094" xlink:href="#DejaVuSans-48"/>
      </g>
     </g>
    </g>
    <g id="xtick_10">
     <g id="text_17">
      <!-- 150 -->
      <g style="fill:#262626;" transform="translate(459.226645 178.597656)scale(0.15 -0.15)">
       <use xlink:href="#DejaVuSans-49"/>
       <use x="63.623047" xlink:href="#DejaVuSans-53"/>
       <use x="127.246094" xlink:href="#DejaVuSans-48"/>
      </g>
     </g>
    </g>
    <g id="xtick_11">
     <g id="text_18">
      <!-- 200 -->
      <g style="fill:#262626;" transform="translate(497.899068 178.597656)scale(0.15 -0.15)">
       <use xlink:href="#DejaVuSans-50"/>
       <use x="63.623047" xlink:href="#DejaVuSans-48"/>
       <use x="127.246094" xlink:href="#DejaVuSans-48"/>
      </g>
     </g>
    </g>
    <g id="xtick_12">
     <g id="text_19">
      <!-- 250 -->
      <g style="fill:#262626;" transform="translate(536.571491 178.597656)scale(0.15 -0.15)">
       <use xlink:href="#DejaVuSans-50"/>
       <use x="63.623047" xlink:href="#DejaVuSans-53"/>
       <use x="127.246094" xlink:href="#DejaVuSans-48"/>
      </g>
     </g>
    </g>
    <g id="text_20">
     <!-- Time (ms) -->
     <g style="fill:#262626;" transform="translate(408.585182 200.914062)scale(0.2 -0.2)">
      <use xlink:href="#DejaVuSans-84"/>
      <use x="57.958984" xlink:href="#DejaVuSans-105"/>
      <use x="85.742188" xlink:href="#DejaVuSans-109"/>
      <use x="183.154297" xlink:href="#DejaVuSans-101"/>
      <use x="244.677734" xlink:href="#DejaVuSans-32"/>
      <use x="276.464844" xlink:href="#DejaVuSans-40"/>
      <use x="315.478516" xlink:href="#DejaVuSans-109"/>
      <use x="412.890625" xlink:href="#DejaVuSans-115"/>
      <use x="464.990234" xlink:href="#DejaVuSans-41"/>
     </g>
    </g>
   </g>
   <g id="matplotlib.axis_4">
    <g id="ytick_6">
     <g id="text_21">
      <!-- −10 -->
      <g style="fill:#262626;" transform="translate(316.367969 151.212852)scale(0.15 -0.15)">
       <use xlink:href="#DejaVuSans-8722"/>
       <use x="83.789062" xlink:href="#DejaVuSans-49"/>
       <use x="147.412109" xlink:href="#DejaVuSans-48"/>
      </g>
     </g>
    </g>
    <g id="ytick_7">
     <g id="text_22">
      <!-- −5 -->
      <g style="fill:#262626;" transform="translate(325.911719 120.225198)scale(0.15 -0.15)">
       <use xlink:href="#DejaVuSans-8722"/>
       <use x="83.789062" xlink:href="#DejaVuSans-53"/>
      </g>
     </g>
    </g>
    <g id="ytick_8">
     <g id="text_23">
      <!-- 0 -->
      <g style="fill:#262626;" transform="translate(338.48125 89.237543)scale(0.15 -0.15)">
       <use xlink:href="#DejaVuSans-48"/>
      </g>
     </g>
    </g>
    <g id="ytick_9">
     <g id="text_24">
      <!-- 5 -->
      <g style="fill:#262626;" transform="translate(338.48125 58.249888)scale(0.15 -0.15)">
       <use xlink:href="#DejaVuSans-53"/>
      </g>
     </g>
    </g>
    <g id="ytick_10">
     <g id="text_25">
      <!-- 10 -->
      <g style="fill:#262626;" transform="translate(328.9375 27.262233)scale(0.15 -0.15)">
       <use xlink:href="#DejaVuSans-49"/>
       <use x="63.623047" xlink:href="#DejaVuSans-48"/>
      </g>
     </g>
    </g>
    <g id="text_26">
     <!-- Dipole (nAm) -->
     <g style="fill:#262626;" transform="translate(308.208594 150.026563)rotate(-90)scale(0.2 -0.2)">
      <use xlink:href="#DejaVuSans-68"/>
      <use x="77.001953" xlink:href="#DejaVuSans-105"/>
      <use x="104.785156" xlink:href="#DejaVuSans-112"/>
      <use x="168.261719" xlink:href="#DejaVuSans-111"/>
      <use x="229.443359" xlink:href="#DejaVuSans-108"/>
      <use x="257.226562" xlink:href="#DejaVuSans-101"/>
      <use x="318.75" xlink:href="#DejaVuSans-32"/>
      <use x="350.537109" xlink:href="#DejaVuSans-40"/>
      <use x="389.550781" xlink:href="#DejaVuSans-110"/>
      <use x="452.929688" xlink:href="#DejaVuSans-65"/>
      <use x="521.337891" xlink:href="#DejaVuSans-109"/>
      <use x="618.75" xlink:href="#DejaVuSans-41"/>
     </g>
    </g>
   </g>
   <g id="line2d_3">
    <path clip-path="url(#p953edc0d02)" d="M 289.735276 86.47732 
L 291.091071 86.536546 
L 291.543002 86.375057 
L 294.254591 86.432062 
L 294.706523 86.349394 
L 295.610386 86.461718 
L 296.514249 86.357147 
L 296.96618 86.481669 
L 297.870043 86.441512 
L 298.321975 86.516522 
L 299.225838 86.494917 
L 301.485495 86.531095 
L 302.389358 86.626447 
L 303.293221 86.657985 
L 318.20696 87.404078 
L 318.658892 87.233621 
L 319.562755 87.394724 
L 320.014686 87.320999 
L 321.822412 87.458046 
L 322.274344 87.48812 
L 322.726275 87.392938 
L 325.437864 87.541599 
L 325.889796 87.498198 
L 326.341727 87.584524 
L 327.24559 87.578202 
L 328.149453 87.579792 
L 330.409111 87.713323 
L 332.668768 87.670591 
L 334.024562 87.719557 
L 334.928425 87.63059 
L 335.832288 87.647478 
L 337.188083 87.659267 
L 337.640014 87.766141 
L 338.543877 87.722635 
L 340.803535 87.77696 
L 341.707398 87.696525 
L 344.418987 87.736354 
L 344.870918 87.640856 
L 345.32285 87.724545 
L 346.678644 87.622402 
L 348.034439 87.636869 
L 349.842165 87.605079 
L 351.197959 87.603881 
L 355.265343 87.528136 
L 367.919424 87.204163 
L 371.082945 87.092463 
L 372.438739 87.106853 
L 376.958054 86.851647 
L 377.409986 86.993364 
L 378.76578 86.846122 
L 379.669643 86.876481 
L 380.121575 86.733844 
L 381.025438 86.785484 
L 383.737026 86.662151 
L 384.640889 86.683602 
L 385.092821 86.51974 
L 385.544752 86.606842 
L 385.996684 86.522676 
L 386.448615 86.593055 
L 387.80441 86.469693 
L 391.419862 86.347014 
L 391.871793 86.405521 
L 392.323725 86.300814 
L 393.679519 86.222955 
L 395.035314 86.130815 
L 395.487245 86.250337 
L 395.939177 86.135255 
L 396.391108 86.137577 
L 396.84304 86.028099 
L 397.746903 86.047068 
L 398.198834 85.979902 
L 399.102697 86.065104 
L 400.00656 85.845626 
L 400.458492 85.98688 
L 401.362355 85.923443 
L 403.170081 85.79785 
L 404.525875 85.805595 
L 405.429738 85.684677 
L 406.785532 85.655462 
L 410.400984 85.396695 
L 410.852916 85.48184 
L 411.304847 85.375944 
L 413.112573 85.429496 
L 414.016436 85.282318 
L 414.920299 85.28878 
L 415.372231 85.344622 
L 418.987683 84.823025 
L 419.439614 84.594146 
L 419.891546 84.526516 
L 421.699272 83.522262 
L 422.151203 83.295644 
L 422.603135 82.866205 
L 425.314724 81.292736 
L 426.670518 81.041376 
L 428.026313 81.610334 
L 428.930176 82.392218 
L 429.382107 82.770669 
L 431.641764 85.780863 
L 432.545627 86.859262 
L 432.997559 87.307212 
L 434.353353 88.039726 
L 434.805285 88.026823 
L 435.709148 87.530172 
L 437.064942 85.806211 
L 437.968805 84.019066 
L 439.776531 79.636089 
L 441.584257 75.053836 
L 443.391983 71.522763 
L 444.295846 70.112398 
L 445.199709 69.044043 
L 446.555504 68.063211 
L 447.459367 67.690146 
L 448.815161 67.497655 
L 450.622887 68.054488 
L 451.978682 68.898518 
L 452.882545 69.53011 
L 453.334476 69.846437 
L 454.238339 70.706652 
L 454.69027 71.017959 
L 456.046065 72.398076 
L 460.56538 75.968734 
L 463.7289 77.841738 
L 466.892421 79.310692 
L 468.248215 79.789073 
L 475.479119 80.768699 
L 475.931051 80.755361 
L 476.834913 80.980658 
L 477.286845 80.906115 
L 477.738776 81.093062 
L 478.190708 80.987657 
L 479.546502 81.136926 
L 480.902297 80.994268 
L 482.710023 80.966883 
L 483.613886 80.889998 
L 484.517749 80.858751 
L 485.421612 80.886795 
L 486.325475 80.909514 
L 486.777406 80.84365 
L 487.681269 80.976945 
L 492.200584 80.75966 
L 493.104447 80.725404 
L 494.00831 80.670327 
L 495.364105 80.526476 
L 495.816036 80.602962 
L 496.719899 80.421895 
L 498.527625 80.623691 
L 499.431488 80.5109 
L 499.88342 80.642251 
L 500.787282 80.558583 
L 501.239214 80.676333 
L 502.143077 80.547687 
L 502.595008 80.688871 
L 503.498871 80.569127 
L 504.854666 80.364238 
L 505.306597 80.446015 
L 505.758529 80.32905 
L 506.662392 80.329942 
L 507.566255 80.256488 
L 508.922049 80.164389 
L 509.825912 80.101381 
L 511.181707 79.928742 
L 511.633638 80.016209 
L 512.989433 79.918974 
L 514.797159 79.949657 
L 515.24909 79.774865 
L 517.508748 79.914662 
L 525.191583 79.869483 
L 532.422487 79.88354 
L 533.32635 79.856166 
L 534.230213 79.959962 
L 534.682144 79.806456 
L 536.941802 79.741422 
L 537.393733 79.895297 
L 538.297596 79.786651 
L 541.461117 79.76942 
L 542.36498 79.724288 
L 555.019061 79.717163 
L 556.826787 80.013987 
L 557.278719 80.166504 
L 558.182582 80.318231 
L 560.442239 81.150362 
L 560.442239 81.150362 
" style="fill:none;stroke:#4c72b0;stroke-linecap:round;stroke-width:3;"/>
   </g>
   <g id="line2d_4">
    <path clip-path="url(#p953edc0d02)" d="M 289.735276 86.416763 
L 290.639139 86.458456 
L 291.543002 86.386433 
L 293.350728 86.512459 
L 293.80266 86.41163 
L 294.254591 86.475774 
L 295.610386 86.41874 
L 299.225838 86.492213 
L 299.677769 86.56309 
L 300.129701 86.474686 
L 301.033564 86.641904 
L 301.485495 86.660973 
L 301.937427 86.524131 
L 303.293221 86.62035 
L 306.456742 86.844513 
L 306.908673 86.926574 
L 307.360605 86.77213 
L 307.812536 86.93283 
L 308.716399 86.837584 
L 309.168331 87.024601 
L 309.620262 87.073983 
L 310.072193 86.970367 
L 311.427988 87.114058 
L 312.331851 86.99651 
L 313.235714 87.202097 
L 313.687645 87.071627 
L 315.947303 87.260755 
L 316.851166 87.267014 
L 320.466618 87.418236 
L 320.918549 87.602965 
L 321.822412 87.41618 
L 322.726275 87.446984 
L 323.178207 87.340619 
L 323.630138 87.555623 
L 324.08207 87.634679 
L 324.985933 87.468505 
L 325.437864 87.571462 
L 325.889796 87.521265 
L 327.24559 87.597819 
L 329.505248 87.627346 
L 329.957179 87.571729 
L 330.861042 87.729145 
L 331.764905 87.633023 
L 332.216837 87.724698 
L 333.1207 87.687507 
L 335.832288 87.764307 
L 336.736151 87.627573 
L 337.188083 87.775863 
L 337.640014 87.63599 
L 338.091946 87.736545 
L 338.995809 87.624858 
L 339.899672 87.684023 
L 340.803535 87.723909 
L 341.707398 87.747756 
L 343.063192 87.731147 
L 343.515124 87.734713 
L 343.967055 87.556995 
L 344.418987 87.810387 
L 344.870918 87.676997 
L 346.678644 87.671002 
L 348.48637 87.558444 
L 351.197959 87.715521 
L 352.101822 87.521214 
L 353.005685 87.633835 
L 353.909548 87.554533 
L 354.36148 87.582334 
L 354.813411 87.493007 
L 355.717274 87.618193 
L 356.621137 87.417651 
L 357.525 87.57514 
L 358.880794 87.431417 
L 361.140452 87.441052 
L 362.496246 87.294671 
L 363.400109 87.421428 
L 364.303972 87.320306 
L 365.659767 87.204966 
L 366.111698 87.311326 
L 367.015561 87.196251 
L 367.919424 87.240379 
L 368.371356 87.13676 
L 369.72715 87.170145 
L 370.631013 87.102701 
L 373.342602 87.057739 
L 374.246465 87.021349 
L 374.698397 86.903748 
L 375.150328 87.014899 
L 376.054191 86.908865 
L 376.506123 87.015159 
L 378.313849 86.877206 
L 379.669643 86.732726 
L 381.025438 86.796762 
L 381.477369 86.657519 
L 381.9293 86.680665 
L 382.381232 86.820376 
L 383.285095 86.749292 
L 388.256341 86.428599 
L 388.708273 86.295212 
L 389.160204 86.429194 
L 389.612136 86.353583 
L 390.064067 86.391288 
L 390.515999 86.302547 
L 390.96793 86.379215 
L 392.323725 86.304238 
L 392.775656 86.316917 
L 393.227588 86.20921 
L 394.131451 86.317762 
L 394.583382 86.295787 
L 395.035314 86.105593 
L 395.487245 86.211663 
L 395.939177 86.082081 
L 396.84304 86.189099 
L 399.102697 85.92546 
L 400.910423 85.895765 
L 401.362355 85.737063 
L 401.814286 85.840516 
L 403.622012 85.747274 
L 404.073944 85.859728 
L 404.977807 85.787459 
L 405.429738 85.827147 
L 405.881669 85.682365 
L 406.333601 85.679829 
L 406.785532 85.80187 
L 407.689395 85.512817 
L 408.141327 85.597925 
L 409.497121 85.511608 
L 409.949053 85.493741 
L 410.400984 85.272513 
L 410.852916 85.434458 
L 414.468368 85.269176 
L 415.824162 85.29357 
L 416.276094 85.177652 
L 417.631888 85.10545 
L 418.535751 84.78396 
L 419.439614 83.980731 
L 419.891546 83.470088 
L 420.795409 81.856475 
L 421.699272 79.17225 
L 422.151203 77.654594 
L 423.506998 71.017166 
L 424.410861 65.123503 
L 426.218587 50.988196 
L 428.478244 32.641081 
L 429.834038 24.011074 
L 430.737901 20.165513 
L 431.189833 18.708909 
L 431.641764 17.975737 
L 432.093696 17.477273 
L 432.545627 17.675067 
L 432.997559 18.120651 
L 433.44949 18.982925 
L 434.353353 21.76831 
L 435.257216 25.811145 
L 436.613011 33.020084 
L 438.420737 43.687812 
L 440.228463 53.153465 
L 441.584257 58.975699 
L 442.940052 63.899836 
L 444.747778 69.1045 
L 446.555504 72.911232 
L 447.911298 75.026283 
L 448.36323 75.661704 
L 448.815161 76.099286 
L 449.267093 76.724345 
L 451.978682 78.723722 
L 452.430613 79.14604 
L 452.882545 79.400795 
L 453.786407 80.451595 
L 454.69027 81.980627 
L 455.594133 84.282184 
L 456.497996 87.698549 
L 457.401859 91.944936 
L 458.305722 97.515264 
L 459.661517 107.672008 
L 463.276969 137.834283 
L 464.180832 143.692007 
L 465.084695 148.146221 
L 465.988558 150.519293 
L 466.440489 151.022727 
L 466.892421 150.935002 
L 467.344352 150.478534 
L 467.796284 149.548306 
L 468.248215 148.152876 
L 469.152078 143.990366 
L 470.055941 138.673093 
L 470.959804 132.454608 
L 475.027188 101.838638 
L 476.834913 91.383965 
L 478.190708 85.37748 
L 479.094571 82.24078 
L 480.450365 78.694258 
L 481.354228 76.844124 
L 482.710023 75.011453 
L 484.517749 73.626562 
L 486.325475 73.417882 
L 487.681269 73.904686 
L 488.133201 73.995198 
L 489.488995 74.722825 
L 490.84479 75.441059 
L 493.556379 76.866953 
L 494.00831 76.90915 
L 494.912173 77.26253 
L 499.431488 78.623349 
L 500.335351 78.766571 
L 500.787282 78.830981 
L 501.239214 79.098613 
L 501.691145 79.036647 
L 504.854666 79.45994 
L 505.758529 79.485416 
L 506.21046 79.468012 
L 506.662392 79.597569 
L 511.633638 79.679045 
L 512.08557 79.527984 
L 513.441364 79.609814 
L 514.345227 79.464615 
L 516.152953 79.517834 
L 517.056816 79.397443 
L 517.508748 79.505509 
L 517.960679 79.387804 
L 518.864542 79.497234 
L 520.220337 79.312231 
L 520.672268 79.436349 
L 522.028063 79.312735 
L 522.479994 79.414919 
L 524.739651 79.295055 
L 525.643514 79.291628 
L 526.999309 79.367189 
L 527.45124 79.088901 
L 527.903172 79.375461 
L 528.807035 79.231118 
L 529.710898 79.152516 
L 530.162829 79.275488 
L 530.614761 79.147437 
L 531.066692 79.201846 
L 531.518624 79.131641 
L 531.970555 79.203059 
L 532.422487 79.017425 
L 532.874418 79.229198 
L 533.32635 79.111875 
L 534.230213 79.153343 
L 534.682144 78.997974 
L 535.134076 79.136696 
L 536.037939 79.113664 
L 536.48987 79.014497 
L 537.393733 79.175659 
L 537.845665 79.127061 
L 538.297596 79.240985 
L 538.749528 79.035943 
L 540.557254 79.053323 
L 541.009185 78.889731 
L 541.461117 79.129332 
L 542.36498 78.988588 
L 543.268843 79.081455 
L 543.720774 79.000973 
L 544.624637 79.09491 
L 545.5285 79.003326 
L 546.884295 78.913156 
L 548.69202 79.00449 
L 550.047815 78.921733 
L 550.499746 78.976221 
L 551.403609 78.787445 
L 552.307472 79.049011 
L 553.663267 78.988225 
L 555.922924 79.195157 
L 559.538376 80.344422 
L 559.990308 80.645685 
L 560.442239 80.581415 
L 560.442239 80.581415 
" style="fill:none;stroke:#dd8452;stroke-linecap:round;stroke-width:3;"/>
   </g>
   <g id="patch_8">
    <path d="M 357.525 157.7 
L 357.525 10.8 
" style="fill:none;stroke:#262626;stroke-linecap:square;stroke-linejoin:miter;stroke-width:1.25;"/>
   </g>
   <g id="patch_9">
    <path d="M 560.442239 157.7 
L 560.442239 10.8 
" style="fill:none;stroke:#262626;stroke-linecap:square;stroke-linejoin:miter;stroke-width:1.25;"/>
   </g>
   <g id="patch_10">
    <path d="M 357.525 157.7 
L 560.442239 157.7 
" style="fill:none;stroke:#262626;stroke-linecap:square;stroke-linejoin:miter;stroke-width:1.25;"/>
   </g>
   <g id="patch_11">
    <path d="M 357.525 10.8 
L 560.442239 10.8 
" style="fill:none;stroke:#262626;stroke-linecap:square;stroke-linejoin:miter;stroke-width:1.25;"/>
   </g>
  </g>
 </g>
 <defs>
  <clipPath id="p5bb366f1fe">
   <rect height="146.9" width="202.917239" x="74.925" y="10.8"/>
  </clipPath>
  <clipPath id="p953edc0d02">
   <rect height="146.9" width="202.917239" x="357.525" y="10.8"/>
  </clipPath>
 </defs>
</svg>
